<?xml version="1.0" encoding="UTF-8"?>
<svg width="733px" height="500px" viewBox="0 0 733 500" version="1.1" xmlns="http://www.w3.org/2000/svg" xmlns:xlink="http://www.w3.org/1999/xlink">
    <!-- Generator: Sketch 60.1 (88133) - https://sketch.com -->
    <title>橱柜书柜窗子相框居家场景</title>
    <desc>Created with Sketch.</desc>
    <defs>
        <path d="M142.039,117.531 C73.446,180.035 0.714,199.133 0.714,349.327 L0.714,349.327 C0.714,451.722 182.929,499.984 365.164,500 L365.164,500 L365.339,500 C541.924,499.993 718.441,454.685 729.211,369.432 L729.211,369.432 C747.546,231.655 688.75,223.055 636.379,160.106 L636.379,160.106 C564.85,74.13 546.499,14.05 376.2,2.224 L376.2,2.224 C367.527,1.376 359.208,0.966 351.225,0.966 L351.225,0.966 C259.058,0.966 210.17,55.447 142.039,117.531" id="path-1"></path>
        <path d="M142.039,117.531 C73.446,180.035 0.714,199.133 0.714,349.327 L0.714,349.327 C0.714,451.722 182.929,499.984 365.164,500 L365.164,500 L365.339,500 C541.924,499.993 718.441,454.685 729.211,369.432 L729.211,369.432 C747.546,231.655 688.75,223.055 636.379,160.106 L636.379,160.106 C564.85,74.13 546.499,14.05 376.2,2.224 L376.2,2.224 C367.527,1.376 359.208,0.966 351.225,0.966 L351.225,0.966 C259.058,0.966 210.17,55.447 142.039,117.531" id="path-3"></path>
        <path d="M142.039,118.325 C73.446,180.829 0.714,199.927 0.714,350.121 L0.714,350.121 C0.714,452.516 182.929,500.778 365.164,500.794 L365.164,500.794 L365.339,500.794 C541.924,500.787 718.441,455.479 729.211,370.226 L729.211,370.226 C747.546,232.449 688.75,223.849 636.379,160.9 L636.379,160.9 C564.85,74.924 546.499,14.844 376.2,3.018 L376.2,3.018 C367.527,2.17 359.208,1.76 351.225,1.76 L351.225,1.76 C259.058,1.76 210.17,56.241 142.039,118.325 L142.039,118.325 Z" id="path-5"></path>
    </defs>
    <g id="页面-1" stroke="none" stroke-width="1" fill="none" fill-rule="evenodd">
        <g id="画板" transform="translate(-200.000000, -155.000000)">
            <g id="橱柜书柜窗子相框居家场景" transform="translate(200.000000, 154.000000)">
                <g id="编组" transform="translate(0.000000, 0.794000)">
                    <mask id="mask-2" fill="white">
                        <use xlink:href="#path-1"></use>
                    </mask>
                    <g id="Clip-2"></g>
                    <path d="M0.7138,349.3264 C0.7138,550.9664 707.3258,542.6874 729.2108,369.4314 C747.5468,231.6554 688.7508,223.0554 636.3798,160.1054 C564.8498,74.1294 546.4988,14.0504 376.1998,2.2244 C267.3978,-8.4196 216.0708,50.0694 142.0388,117.5314 C73.4458,180.0344 0.7138,199.1324 0.7138,349.3264" id="Fill-1" fill="#FFEEDE" mask="url(#mask-2)"></path>
                </g>
                <g id="编组" transform="translate(0.000000, 0.794000)">
                    <mask id="mask-4" fill="white">
                        <use xlink:href="#path-3"></use>
                    </mask>
                    <g id="Clip-4"></g>
                    <path d="M367.33,407.2756 C225.377,407.2756 105.723,422.2136 69.051,442.5926 C209.686,520.9716 529.711,517.1706 666.171,442.9106 C630.176,422.3696 510.019,407.2756 367.33,407.2756" id="Fill-3" fill="#F2B98B" mask="url(#mask-4)"></path>
                </g>
                <mask id="mask-6" fill="white">
                    <use xlink:href="#path-5"></use>
                </mask>
                <g id="Clip-6"></g>
                <polygon id="Fill-5" fill="#FFFFFF" mask="url(#mask-6)" points="563.056 431.723 829.148 431.723 829.148 258.467 563.056 258.467"></polygon>
                <polygon id="Fill-7" fill="#FFEEDE" mask="url(#mask-6)" points="572.604 423.444 819.6 423.444 819.6 260.241 572.604 260.241"></polygon>
                <path d="M563.0561,276.6375 C563.5241,276.7405 564.0091,276.7975 564.5081,276.7975 L827.6961,276.7975 C828.1951,276.7975 828.6801,276.7405 829.1481,276.6375 L829.1481,263.7885 L563.0561,263.7885 L563.0561,276.6375 Z" id="Fill-8" fill="#D44100" mask="url(#mask-6)"></path>
                <path d="M827.7934,251.3709 L564.4104,251.3709 C560.7234,251.3709 557.7334,254.3609 557.7334,258.0479 L557.7334,265.3899 C557.7334,269.0779 560.7234,272.0669 564.4104,272.0669 L827.7934,272.0669 C831.4814,272.0669 834.4704,269.0779 834.4704,265.3899 L834.4704,258.0479 C834.4704,254.3609 831.4814,251.3709 827.7934,251.3709" id="Fill-9" fill="#DD882F" mask="url(#mask-6)"></path>
                <path d="M827.7934,248.4144 L564.4104,248.4144 C560.7234,248.4144 557.7334,251.4044 557.7334,255.0914 L557.7334,262.4334 C557.7334,266.1214 560.7234,269.1104 564.4104,269.1104 L827.7934,269.1104 C831.4814,269.1104 834.4704,266.1214 834.4704,262.4334 L834.4704,255.0914 C834.4704,251.4044 831.4814,248.4144 827.7934,248.4144" id="Fill-10" fill="#FFCEA6" mask="url(#mask-6)"></path>
                <polygon id="Fill-11" fill="#F4B687" mask="url(#mask-6)" points="579.965 416.94 810.226 416.94 810.226 382.052 579.965 382.052"></polygon>
                <polygon id="Fill-12" fill="#FFCEA6" mask="url(#mask-6)" points="579.965 412.8 810.226 412.8 810.226 377.912 579.965 377.912"></polygon>
                <path d="M698.7485,391.8528 C700.8625,393.9678 701.2665,396.9928 699.6495,398.6088 C698.0335,400.2248 695.0095,399.8218 692.8945,397.7068 C690.7795,395.5918 690.3765,392.5678 691.9925,390.9518 C693.6085,389.3348 696.6335,389.7388 698.7485,391.8528" id="Fill-13" fill="#F4B687" mask="url(#mask-6)"></path>
                <path d="M699.058,393.8782 C699.058,396.1642 697.205,398.0182 694.919,398.0182 C692.633,398.0182 690.78,396.1642 690.78,393.8782 C690.78,391.5922 692.633,389.7392 694.919,389.7392 C697.205,389.7392 699.058,391.5922 699.058,393.8782" id="Fill-14" fill="#FFEEDE" mask="url(#mask-6)"></path>
                <polygon id="Fill-15" fill="#F4B687" mask="url(#mask-6)" points="579.965 325.286 810.226 325.286 810.226 290.398 579.965 290.398"></polygon>
                <polygon id="Fill-16" fill="#FFCEA6" mask="url(#mask-6)" points="579.965 321.147 810.226 321.147 810.226 286.259 579.965 286.259"></polygon>
                <path d="M698.7485,301.3822 C700.8625,303.4962 701.2665,306.5212 699.6495,308.1372 C698.0335,309.7542 695.0095,309.3502 692.8945,307.2362 C690.7795,305.1212 690.3765,302.0972 691.9925,300.4802 C693.6085,298.8632 696.6335,299.2672 698.7485,301.3822" id="Fill-17" fill="#F4B687" mask="url(#mask-6)"></path>
                <path d="M699.058,303.4066 C699.058,305.6926 697.205,307.5466 694.919,307.5466 C692.633,307.5466 690.78,305.6926 690.78,303.4066 C690.78,301.1206 692.633,299.2676 694.919,299.2676 C697.205,299.2676 699.058,301.1206 699.058,303.4066" id="Fill-18" fill="#FFEEDE" mask="url(#mask-6)"></path>
                <polygon id="Fill-19" fill="#F4B687" mask="url(#mask-6)" points="579.965 371.113 810.226 371.113 810.226 336.225 579.965 336.225"></polygon>
                <polygon id="Fill-20" fill="#FFCEA6" mask="url(#mask-6)" points="579.965 366.973 810.226 366.973 810.226 332.085 579.965 332.085"></polygon>
                <path d="M698.7485,346.9134 C700.8625,349.0274 701.2665,352.0524 699.6495,353.6694 C698.0335,355.2854 695.0095,354.8814 692.8945,352.7674 C690.7795,350.6524 690.3765,347.6284 691.9925,346.0114 C693.6085,344.3944 696.6335,344.7994 698.7485,346.9134" id="Fill-21" fill="#F4B687" mask="url(#mask-6)"></path>
                <path d="M699.058,348.9378 C699.058,351.2238 697.205,353.0778 694.919,353.0778 C692.633,353.0778 690.78,351.2238 690.78,348.9378 C690.78,346.6528 692.633,344.7988 694.919,344.7988 C697.205,344.7988 699.058,346.6528 699.058,348.9378" id="Fill-22" fill="#FFEEDE" mask="url(#mask-6)"></path>
                <polygon id="Fill-23" fill="#FFCEA6" mask="url(#mask-6)" points="322.982 230.084 755.234 230.084 755.234 -9.399 322.982 -9.399"></polygon>
                <polygon id="Fill-24" fill="#FFF7F0" mask="url(#mask-6)" points="333.625 230.084 744.59 230.084 744.59 -11.173 333.625 -11.173"></polygon>
                <polygon id="Fill-25" fill="#D44100" mask="url(#mask-6)" points="308.79 237.179 770.016 237.179 770.016 224.17 308.79 224.17"></polygon>
                <path d="M765.8198,233.0403 L312.9868,233.0403 C310.6688,233.0403 308.7898,231.1613 308.7898,228.8433 L308.7898,224.2283 C308.7898,221.9103 310.6688,220.0313 312.9868,220.0313 L765.8198,220.0313 C768.1368,220.0313 770.0158,221.9103 770.0158,224.2283 L770.0158,228.8433 C770.0158,231.1613 768.1368,233.0403 765.8198,233.0403" id="Fill-26" fill="#FFCEA6" mask="url(#mask-6)"></path>
                <polygon id="Fill-27" fill="#FFCEA6" mask="url(#mask-6)" points="333.625 24.305 744.59 24.305 744.59 20.757 333.625 20.757"></polygon>
                <polygon id="Fill-28" fill="#FFCEA6" mask="url(#mask-6)" points="469.431 221.805 472.979 221.805 472.979 -23 469.431 -23"></polygon>
                <polygon id="Fill-29" fill="#FFCEA6" mask="url(#mask-6)" points="605.237 221.805 608.785 221.805 608.785 -23 605.237 -23"></polygon>
                <polygon id="Fill-30" fill="#FFCEA6" mask="url(#mask-6)" points="333.625 90.139 744.59 90.139 744.59 86.591 333.625 86.591"></polygon>
                <polygon id="Fill-31" fill="#FFCEA6" mask="url(#mask-6)" points="333.625 155.972 744.59 155.972 744.59 152.424 333.625 152.424"></polygon>
                <polygon id="Fill-32" fill="#FFCEA6" mask="url(#mask-6)" points="345 98.307 744.139 98.307 744.139 -17 345 -17"></polygon>
                <polygon id="Fill-33" fill="#F4977A" mask="url(#mask-6)" points="338.946 107.681 738.085 107.681 738.085 104.724 338.946 104.724"></polygon>
                <polygon id="Fill-34" fill="#F4977A" mask="url(#mask-6)" points="338.946 115.96 738.085 115.96 738.085 113.003 338.946 113.003"></polygon>
                <polygon id="Fill-35" fill="#F4977A" mask="url(#mask-6)" points="338.946 124.238 738.085 124.238 738.085 121.281 338.946 121.281"></polygon>
                <polygon id="Fill-36" fill="#F4977A" mask="url(#mask-6)" points="338.946 132.516 738.085 132.516 738.085 129.559 338.946 129.559"></polygon>
                <polygon id="Fill-37" fill="#F4977A" mask="url(#mask-6)" points="338.946 140.795 738.085 140.795 738.085 137.838 338.946 137.838"></polygon>
                <polygon id="Fill-38" fill="#F4977A" mask="url(#mask-6)" points="338.946 149.074 738.085 149.074 738.085 146.117 338.946 146.117"></polygon>
                <polygon id="Fill-39" fill="#F4977A" mask="url(#mask-6)" points="338.946 157.352 738.085 157.352 738.085 154.395 338.946 154.395"></polygon>
                <polygon id="Fill-40" fill="#F4977A" mask="url(#mask-6)" points="338.946 165.039 738.085 165.039 738.085 162.082 338.946 162.082"></polygon>
                <polygon id="Fill-41" fill="#D44100" mask="url(#mask-6)" points="265.024 173.317 294.598 173.317 294.598 132.583 265.024 132.583"></polygon>
                <polygon id="Fill-42" fill="#FFCEA6" mask="url(#mask-6)" points="265.024 170.952 294.598 170.952 294.598 130.218 265.024 130.218"></polygon>
                <polygon id="Fill-43" fill="#FFF7F0" mask="url(#mask-6)" points="267.372 167.719 292.251 167.719 292.251 133.451 267.372 133.451"></polygon>
                <polygon id="Fill-44" fill="#D44100" mask="url(#mask-6)" points="192.892 254.919 253.206 254.919 253.206 173.976 192.892 173.976"></polygon>
                <polygon id="Fill-45" fill="#FFCEA6" mask="url(#mask-6)" points="192.892 251.962 253.206 251.962 253.206 171.019 192.892 171.019"></polygon>
                <polygon id="Fill-46" fill="#FFF7F0" mask="url(#mask-6)" points="197.678 245.538 248.419 245.538 248.419 177.443 197.678 177.443"></polygon>
                <path d="M210.1762,241.91 L231.1002,241.91 C231.1002,241.91 231.1002,238.501 242.9262,239.353 C239.2872,234.24 234.2842,231.684 231.5542,231.684 C233.8292,228.275 238.8322,217.197 238.3782,208.675 C234.7382,209.527 228.8252,217.197 228.3702,218.049 L228.3702,183.961 C228.3702,183.961 222.9122,189.927 221.0932,207.823 C218.8192,199.301 214.2702,183.961 213.3602,183.961 C212.9052,186.517 209.7212,209.527 216.0902,223.162 C211.5412,220.605 208.3572,217.197 206.0822,212.935 C203.8082,212.935 205.1732,222.309 206.9922,224.866 C208.8122,227.423 211.9962,230.831 213.3602,232.536 C210.6312,233.388 202.4442,229.979 202.4442,229.979 C202.4442,229.979 203.3532,235.945 210.1762,241.91" id="Fill-47" fill="#FCD1B4" mask="url(#mask-6)"></path>
                <polygon id="Fill-48" fill="#D44100" mask="url(#mask-6)" points="79.951 156.169 233.102 156.169 233.102 75.226 79.951 75.226"></polygon>
                <polygon id="Fill-49" fill="#FFCEA6" mask="url(#mask-6)" points="79.951 153.213 233.102 153.213 233.102 72.27 79.951 72.27"></polygon>
                <polygon id="Fill-50" fill="#FFF7F0" mask="url(#mask-6)" points="84.737 146.788 228.314 146.788 228.314 78.693 84.737 78.693"></polygon>
                <path d="M100.6464,97.6287 C106.5594,103.5417 144.9954,118.9167 160.3694,120.6907 C175.7434,122.4637 195.8484,120.6907 197.6224,123.0557 C199.3964,125.4207 226.0054,125.4207 221.8664,132.5167 C217.7274,139.6117 214.1794,144.9337 194.0744,143.7517 C173.9694,142.5687 105.3764,143.7517 105.3764,143.7517 L100.6464,97.6287 Z" id="Fill-51" fill="#FCD1B4" mask="url(#mask-6)"></path>
                <path d="M161.5522,110.638 C163.0482,111.76 180.4742,117.734 191.1172,117.142 C201.7612,116.551 212.9962,120.69 212.9962,120.69 C212.9962,120.69 224.8232,126.012 212.9962,107.681 C201.1702,89.35 149.7252,101.768 161.5522,110.638" id="Fill-52" fill="#FCD1B4" mask="url(#mask-6)"></path>
                <polygon id="Fill-53" fill="#FFF7F0" mask="url(#mask-6)" points="-46 434.088 179.883 434.088 179.883 240.727 -46 240.727"></polygon>
                <polygon id="Fill-54" fill="#FFCEA6" mask="url(#mask-6)" points="-36.842 426.401 170.726 426.401 170.726 240.728 -36.842 240.728"></polygon>
                <path d="M140.9438,416.348 L87.5658,416.348 C79.1258,416.348 72.2828,409.506 72.2828,401.066 L72.2828,271.975 C72.2828,263.535 79.1258,256.693 87.5658,256.693 L140.9438,256.693 C149.3838,256.693 156.2258,263.535 156.2258,271.975 L156.2258,401.066 C156.2258,409.506 149.3838,416.348 140.9438,416.348" id="Fill-55" fill="#D1884B" mask="url(#mask-6)"></path>
                <polygon id="Fill-56" fill="#F4B687" mask="url(#mask-6)" points="83.499 416.348 142.63 416.348 142.63 408.07 83.499 408.07"></polygon>
                <polygon id="Fill-57" fill="#FFCEA6" mask="url(#mask-6)" points="88.229 408.07 147.36 408.07 147.36 399.792 88.229 399.792"></polygon>
                <polygon id="Fill-58" fill="#FFCEA6" mask="url(#mask-6)" points="76.993 391.513 136.125 391.513 136.125 383.235 76.993 383.235"></polygon>
                <polygon id="Fill-59" fill="#F4B687" mask="url(#mask-6)" points="88.229 399.791 147.36 399.791 147.36 391.513 88.229 391.513"></polygon>
                <path d="M46.3169,416.348 L-7.0601,416.348 C-15.5011,416.348 -22.3431,409.506 -22.3431,401.066 L-22.3431,271.975 C-22.3431,263.535 -15.5011,256.693 -7.0601,256.693 L46.3169,256.693 C54.7569,256.693 61.5999,263.535 61.5999,271.975 L61.5999,401.066 C61.5999,409.506 54.7569,416.348 46.3169,416.348" id="Fill-60" fill="#D1884B" mask="url(#mask-6)"></path>
                <polygon id="Fill-61" fill="#F4B687" mask="url(#mask-6)" points="19.045 362.538 48.611 362.538 48.611 322.599 19.045 322.599"></polygon>
                <polygon id="Fill-62" fill="#FF994D" mask="url(#mask-6)" points="21.638 331.416 46.017 331.416 46.017 328.823 21.638 328.823"></polygon>
                <polygon id="Fill-63" fill="#FF994D" mask="url(#mask-6)" points="23.713 335.566 43.942 335.566 43.942 334.01 23.713 334.01"></polygon>
                <polygon id="Fill-64" fill="#FFCEA6" mask="url(#mask-6)" points="3.079 362.538 36.784 362.538 36.784 317.007 3.079 317.007"></polygon>
                <polygon id="Fill-65" fill="#F4B687" mask="url(#mask-6)" points="6.036 327.06 33.828 327.06 33.828 324.103 6.036 324.103"></polygon>
                <polygon id="Fill-66" fill="#F4B687" mask="url(#mask-6)" points="8.401 331.79 31.462 331.79 31.462 330.016 8.401 330.016"></polygon>
                <polygon id="Fill-67" fill="#D44100" mask="url(#mask-6)" points="-46 249.597 179.883 249.597 179.883 235.997 -46 235.997"></polygon>
                <polygon id="Fill-68" fill="#FCC59F" mask="url(#mask-6)" points="-46 245.458 179.883 245.458 179.883 235.997 -46 235.997"></polygon>
                <polygon id="Fill-69" fill="#FFCEA6" mask="url(#mask-6)" points="92.888 311.094 156.226 311.094 156.226 306.364 92.888 306.364"></polygon>
                <polygon id="Fill-70" fill="#FFCEA6" mask="url(#mask-6)" points="-22.343 311.094 40.996 311.094 40.996 306.364 -22.343 306.364"></polygon>
                <polygon id="Fill-71" fill="#FFCEA6" mask="url(#mask-6)" points="-1.739 367.269 61.6 367.269 61.6 362.539 -1.739 362.539"></polygon>
                <polygon id="Fill-72" fill="#FFCEA6" mask="url(#mask-6)" points="72.283 367.269 135.622 367.269 135.622 362.539 72.283 362.539"></polygon>
                <polygon id="Fill-73" fill="#FCD1B4" mask="url(#mask-6)" points="6.627 281.528 32.645 281.528 32.645 279.163 6.627 279.163"></polygon>
                <polygon id="Fill-74" fill="#EAAC81" mask="url(#mask-6)" points="6.627 281.528 32.645 281.528 32.645 280.345 6.627 280.345"></polygon>
                <path d="M32.645,281.5281 L19.636,281.5281 L6.627,281.5281 C6.627,281.5281 -1.06,284.4851 -1.06,289.8061 C-1.06,295.1281 4.853,306.3631 9.584,306.3631 L19.636,306.3631 L29.688,306.3631 C34.419,306.3631 40.332,295.1281 40.332,289.8061 C40.332,284.4851 32.645,281.5281 32.645,281.5281" id="Fill-75" fill="#FCD1B4" mask="url(#mask-6)"></path>
                <path d="M33.3354,304.5355 C33.3274,304.5345 19.0424,303.4065 10.7664,301.6335 C2.4894,299.8595 2.0234,284.2715 2.0234,284.2655 C0.3864,285.6365 -1.0606,287.4985 -1.0606,289.8065 C-1.0606,295.1285 4.8534,306.3635 9.5844,306.3635 L19.6364,306.3635 L29.6884,306.3635 C30.8674,306.3635 32.1194,305.6655 33.3354,304.5355" id="Fill-76" fill="#EAAC81" mask="url(#mask-6)"></path>
                <path d="M144.5639,416.348 L101.2819,404.522 L101.2819,268.519 L144.5639,256.693 C151.0049,256.693 156.2259,260.739 156.2259,265.73 L156.2259,407.312 C156.2259,412.302 151.0049,416.348 144.5639,416.348" id="Fill-77" fill="#E2BFB0" mask="url(#mask-6)"></path>
                <path d="M-10.6411,416.348 L32.6409,404.522 L32.6409,268.519 L-10.6411,256.693 C-17.0821,256.693 -22.3031,260.739 -22.3031,265.73 L-22.3031,407.312 C-22.3031,412.302 -17.0821,416.348 -10.6411,416.348" id="Fill-78" fill="#E2BFB0" mask="url(#mask-6)"></path>
            </g>
        </g>
    </g>
</svg>