<?xml version="1.0" standalone="no"?>
<!DOCTYPE svg PUBLIC "-//W3C//DTD SVG 1.1//EN" "http://www.w3.org/Graphics/SVG/1.1/DTD/svg11.dtd">
<svg t="1671674540779" class="icon" viewBox="0 0 1024 1024" version="1.1" xmlns="http://www.w3.org/2000/svg" p-id="3466" xmlns:xlink="http://www.w3.org/1999/xlink" width="200" height="200">
    <path d="M911.244448 452.317713 563.184241 452.317713 563.184241 104.274902c0-27.465538-22.254863-49.720402-49.721425-49.720402-27.465538 0-49.719378 22.254863-49.719378 49.720402l0 348.043834L115.715977 452.318736c-27.465538 0-49.720402 22.254863-49.720402 49.721425 0 27.465538 22.254863 49.720402 49.720402 49.720402l348.028485 0 0 348.010065c0 27.467585 22.25384 49.722448 49.719378 49.722448 27.466562 0 49.721425-22.254863 49.721425-49.722448L563.185264 551.760562l348.060207 0c27.466562 0 49.720402-22.254863 49.720402-49.720402C960.96485 474.572576 938.71101 452.317713 911.244448 452.317713z" p-id="3467" fill="#ffffff"></path>
</svg>