<svg viewBox="0 0 1024 1024" version="1.1" xmlns="http://www.w3.org/2000/svg" xmlns:xlink="http://www.w3.org/1999/xlink" width="200" height="200">
    <path d="M484.096 1015.296c-7.936 7.936-24.064 7.936-32 7.936H76.8c-32 0-47.872-15.872-55.808-39.936V632.064c0-32 15.872-47.872 39.936-55.808h383.232c15.872 0 24.064 0 39.936 7.936 15.872 7.936 15.872 24.064 24.064 39.936v343.296c-0.256 16.128-8.192 32-24.064 47.872zM531.968 440.576c-15.872-7.936-24.064-24.064-24.064-47.872v-335.36c0-24.064 15.872-47.872 39.936-55.808h391.168c24.064 0 39.936 7.936 55.808 32 0 7.936 7.936 15.872 7.936 24.064v335.36c0 24.064-15.872 47.872-39.936 55.808H579.84c-23.808-0.256-39.936-0.256-47.872-8.192zM827.392 552.192c-55.808 55.808-103.68 119.808-151.808 175.616h95.744c-7.936 32-15.872 64-32 95.744-24.064 39.936-64 71.936-111.872 79.872h-1.28v119.808c46.848-5.12 91.648-21.248 129.024-47.872 87.808-64 127.744-143.616 127.744-247.552h95.744c-55.552-63.744-103.424-119.552-151.296-175.616z" ></path>
    <path d="M626.432 962.816m-60.416 0a60.416 60.416 0 1 0 120.832 0 60.416 60.416 0 1 0-120.832 0Z"></path>
    <path d="M187.392 471.808c55.808-55.808 103.68-119.808 151.808-175.616H243.456c7.936-32 15.872-64 32-95.744 24.064-39.936 64-71.936 111.872-79.872h1.28V0.512c-46.848 5.12-91.648 21.248-129.024 47.872-87.808 64-127.744 143.616-127.744 247.552H35.84c55.808 64 103.68 119.808 151.552 175.872z"></path>
    <path d="M388.352 61.184m-60.416 0a60.416 60.416 0 1 0 120.832 0 60.416 60.416 0 1 0-120.832 0Z"></path>
</svg>