<svg width="535" height="93" viewBox="0 0 535 93" fill="none" xmlns="http://www.w3.org/2000/svg">
<path d="M49.424 10.168C51.088 10.168 52.496 10.584 53.648 11.416C54.8 12.184 55.376 13.144 55.376 14.296C55.376 16.344 54.736 18.008 53.456 19.288C52.176 20.504 50.352 21.112 47.984 21.112C44.272 21.112 41.456 21.144 39.536 21.208C39.408 21.976 38.832 25.432 37.808 31.576C36.656 38.424 35.952 42.616 35.696 44.152L33.68 56.728C32.272 66.136 31.152 74.008 30.32 80.344C31.664 80.28 33.488 80.248 35.792 80.248C39.184 80.248 41.488 80.696 42.704 81.592C43.92 82.488 44.528 83.832 44.528 85.624C44.528 87.288 43.856 88.696 42.512 89.848C41.232 91 39.408 91.576 37.04 91.576C35.44 91.576 32.912 91.512 29.456 91.384C26.256 91.256 24.144 91.192 23.12 91.192C19.088 91.192 14.672 91.544 9.872 92.248C7.76 92.568 6.256 92.728 5.36 92.728C3.952 92.728 2.768 92.344 1.808 91.576C0.848 90.808 0.368 89.688 0.368 88.216C0.368 85.912 1.392 84.12 3.44 82.84C5.488 81.56 8.368 80.888 12.08 80.824L16.592 80.728L16.88 78.616C18.416 68.376 19.536 61.144 20.24 56.92L22.352 44.344C23.632 36.92 24.784 29.272 25.808 21.4L17.744 21.496C15.44 21.496 13.84 21.144 12.944 20.44C12.112 19.672 11.696 18.616 11.696 17.272C11.696 12.92 14.832 10.584 21.104 10.264C24.048 10.136 27.632 10.072 31.856 10.072L49.424 10.168ZM60.9553 91.48C58.5233 91.48 56.7953 90.2 55.7713 87.64C54.8113 85.08 54.3313 80.984 54.3313 75.352C54.3313 67.032 55.5153 59.128 57.8833 51.64C58.4593 49.784 59.3873 48.44 60.6673 47.608C62.0113 46.712 63.8673 46.264 66.2353 46.264C67.5153 46.264 68.4113 46.424 68.9233 46.744C69.4353 47.064 69.6913 47.672 69.6913 48.568C69.6913 49.592 69.2113 51.896 68.2513 55.48C67.6113 58.04 67.0993 60.28 66.7153 62.2C66.3313 64.12 66.0113 66.488 65.7553 69.304C67.8673 63.8 70.2353 59.32 72.8593 55.864C75.4833 52.408 78.0433 49.944 80.5393 48.472C83.0993 47 85.4353 46.264 87.5473 46.264C91.7073 46.264 93.7873 48.344 93.7873 52.504C93.7873 55 93.0833 59.512 91.6753 66.04C90.4593 71.608 89.8513 75.288 89.8513 77.08C89.8513 79.64 90.7793 80.92 92.6353 80.92C93.9153 80.92 95.4193 80.152 97.1473 78.616C98.9393 77.016 101.307 74.456 104.251 70.936C105.019 70.04 105.883 69.592 106.843 69.592C107.675 69.592 108.315 69.976 108.763 70.744C109.275 71.512 109.531 72.568 109.531 73.912C109.531 76.472 108.923 78.456 107.707 79.864C104.955 83.256 101.979 86.04 98.7793 88.216C95.6433 90.392 92.0593 91.48 88.0273 91.48C84.7633 91.48 82.2993 90.552 80.6353 88.696C78.9713 86.776 78.1393 84.024 78.1393 80.44C78.1393 78.648 78.5873 75.448 79.4833 70.84C80.3153 66.808 80.7313 64.024 80.7313 62.488C80.7313 61.464 80.3793 60.952 79.6753 60.952C78.8433 60.952 77.6593 62.04 76.1233 64.216C74.6513 66.328 73.1153 69.144 71.5153 72.664C69.9793 76.184 68.7313 79.896 67.7713 83.8C67.0673 86.808 66.2353 88.856 65.2753 89.944C64.3793 90.968 62.9393 91.48 60.9553 91.48ZM144.58 69.592C145.412 69.592 146.052 69.976 146.5 70.744C147.012 71.512 147.268 72.568 147.268 73.912C147.268 76.472 146.66 78.456 145.444 79.864C142.692 83.256 139.684 86.04 136.42 88.216C133.156 90.392 129.412 91.48 125.188 91.48C112.132 91.48 105.604 82.296 105.604 63.928C105.604 61.112 105.7 58.264 105.892 55.384H102.148C100.228 55.384 98.9163 55.032 98.2123 54.328C97.5723 53.624 97.2523 52.504 97.2523 50.968C97.2523 47.384 98.6923 45.592 101.572 45.592H107.044C108.132 38.552 109.796 32.12 112.036 26.296C114.276 20.472 116.964 15.832 120.1 12.376C123.3 8.92 126.724 7.192 130.372 7.192C133.06 7.192 135.172 8.376 136.708 10.744C138.244 13.112 139.012 16.088 139.012 19.672C139.012 29.592 134.852 38.232 126.532 45.592H137.284C138.308 45.592 139.044 45.816 139.492 46.264C139.94 46.712 140.164 47.544 140.164 48.76C140.164 53.176 136.548 55.384 129.316 55.384H117.604C117.476 58.584 117.412 61.08 117.412 62.872C117.412 69.528 118.18 74.2 119.716 76.888C121.316 79.576 123.812 80.92 127.204 80.92C129.956 80.92 132.388 80.088 134.5 78.424C136.612 76.76 139.108 74.264 141.988 70.936C142.756 70.04 143.62 69.592 144.58 69.592ZM127.78 16.408C126.82 16.408 125.732 17.624 124.516 20.056C123.364 22.424 122.244 25.752 121.156 30.04C120.132 34.264 119.268 38.968 118.564 44.152C122.34 40.888 125.156 37.24 127.012 33.208C128.932 29.112 129.892 25.4 129.892 22.072C129.892 18.296 129.188 16.408 127.78 16.408ZM182.268 69.592C183.1 69.592 183.74 69.976 184.188 70.744C184.7 71.512 184.956 72.568 184.956 73.912C184.956 76.472 184.348 78.456 183.132 79.864C180.764 82.744 177.404 85.4 173.052 87.832C168.764 90.264 164.156 91.48 159.228 91.48C152.508 91.48 147.292 89.656 143.58 86.008C139.868 82.36 138.012 77.368 138.012 71.032C138.012 66.616 138.94 62.52 140.796 58.744C142.652 54.904 145.212 51.864 148.476 49.624C151.804 47.384 155.548 46.264 159.708 46.264C163.42 46.264 166.396 47.384 168.636 49.624C170.876 51.8 171.996 54.776 171.996 58.552C171.996 62.968 170.396 66.776 167.196 69.976C164.06 73.112 158.716 75.608 151.164 77.464C152.764 80.408 155.804 81.88 160.284 81.88C163.164 81.88 166.428 80.888 170.076 78.904C173.788 76.856 176.988 74.2 179.676 70.936C180.444 70.04 181.308 69.592 182.268 69.592ZM158.076 55.672C155.708 55.672 153.692 57.048 152.028 59.8C150.428 62.552 149.628 65.88 149.628 69.784V69.976C153.404 69.08 156.38 67.736 158.556 65.944C160.732 64.152 161.82 62.072 161.82 59.704C161.82 58.488 161.468 57.528 160.764 56.824C160.124 56.056 159.228 55.672 158.076 55.672ZM213.523 69.592C214.355 69.592 214.995 69.976 215.443 70.744C215.955 71.512 216.211 72.568 216.211 73.912C216.211 76.472 215.603 78.456 214.387 79.864C211.635 83.256 208.627 86.04 205.363 88.216C202.163 90.392 198.515 91.48 194.419 91.48C188.787 91.48 184.595 88.92 181.843 83.8C179.155 78.68 177.811 72.056 177.811 63.928C177.811 56.12 178.803 47.224 180.787 37.24C182.835 27.256 185.811 18.68 189.715 11.512C193.683 4.34399 198.387 0.759995 203.827 0.759995C206.899 0.759995 209.299 2.2 211.027 5.08C212.819 7.896 213.715 11.96 213.715 17.272C213.715 24.888 211.603 33.72 207.379 43.768C203.155 53.816 197.427 63.768 190.195 73.624C190.643 76.248 191.379 78.136 192.403 79.288C193.427 80.376 194.771 80.92 196.435 80.92C199.059 80.92 201.363 80.184 203.347 78.712C205.331 77.176 207.859 74.584 210.931 70.936C211.699 70.04 212.563 69.592 213.523 69.592ZM201.715 10.264C200.243 10.264 198.579 12.92 196.723 18.232C194.867 23.544 193.235 30.136 191.827 38.008C190.419 45.88 189.651 53.432 189.523 60.664C194.067 53.176 197.683 45.688 200.371 38.2C203.059 30.648 204.403 23.768 204.403 17.56C204.403 12.696 203.507 10.264 201.715 10.264ZM244.836 69.592C245.668 69.592 246.308 69.976 246.756 70.744C247.268 71.512 247.524 72.568 247.524 73.912C247.524 76.472 246.916 78.456 245.7 79.864C242.948 83.256 239.94 86.04 236.676 88.216C233.476 90.392 229.828 91.48 225.732 91.48C220.1 91.48 215.908 88.92 213.156 83.8C210.468 78.68 209.124 72.056 209.124 63.928C209.124 56.12 210.116 47.224 212.1 37.24C214.148 27.256 217.124 18.68 221.028 11.512C224.996 4.34399 229.7 0.759995 235.14 0.759995C238.212 0.759995 240.612 2.2 242.34 5.08C244.132 7.896 245.028 11.96 245.028 17.272C245.028 24.888 242.916 33.72 238.692 43.768C234.468 53.816 228.74 63.768 221.508 73.624C221.956 76.248 222.692 78.136 223.716 79.288C224.74 80.376 226.084 80.92 227.748 80.92C230.372 80.92 232.676 80.184 234.66 78.712C236.644 77.176 239.172 74.584 242.244 70.936C243.012 70.04 243.876 69.592 244.836 69.592ZM233.028 10.264C231.556 10.264 229.892 12.92 228.036 18.232C226.18 23.544 224.548 30.136 223.14 38.008C221.732 45.88 220.964 53.432 220.836 60.664C225.38 53.176 228.996 45.688 231.684 38.2C234.372 30.648 235.716 23.768 235.716 17.56C235.716 12.696 234.82 10.264 233.028 10.264ZM253.012 39.928C250.324 39.928 248.308 39.32 246.964 38.104C245.62 36.824 244.948 35.064 244.948 32.824C244.948 30.584 245.812 28.728 247.54 27.256C249.332 25.72 251.54 24.952 254.164 24.952C256.532 24.952 258.452 25.528 259.924 26.68C261.396 27.832 262.132 29.464 262.132 31.576C262.132 34.136 261.3 36.184 259.636 37.72C257.972 39.192 255.764 39.928 253.012 39.928ZM243.796 91.48C241.748 91.48 240.34 91.064 239.572 90.232C238.804 89.4 238.42 88.088 238.42 86.296C238.42 85.784 238.484 84.888 238.612 83.608C239.636 71.896 241.332 61.24 243.7 51.64C244.212 49.656 245.044 48.28 246.196 47.512C247.412 46.68 249.332 46.264 251.956 46.264C254.708 46.264 256.084 47.384 256.084 49.624C256.084 49.944 256.02 50.552 255.892 51.448C253.012 65.144 251.284 76.632 250.708 85.912C250.58 87.96 249.972 89.4 248.884 90.232C247.796 91.064 246.1 91.48 243.796 91.48ZM375.348 69.592C376.18 69.592 376.82 69.976 377.268 70.744C377.78 71.512 378.036 72.568 378.036 73.912C378.036 76.408 377.428 78.392 376.212 79.864C369.876 87.608 363.124 91.48 355.956 91.48C349.748 91.48 344.788 89.08 341.076 84.28C337.364 79.48 335.508 72.6 335.508 63.64C335.508 61.464 335.604 59.288 335.796 57.112C331.572 57.88 326.964 58.456 321.972 58.84C318.644 59.096 316.372 59.256 315.156 59.32C313.876 65.848 312.084 73.848 309.78 83.32C308.436 88.888 305.876 91.672 302.1 91.672C298.004 91.672 295.956 89.816 295.956 86.104C295.956 85.272 296.116 84.12 296.436 82.648C298.612 73.88 300.34 66.456 301.62 60.376L297.012 60.568C294.9 60.568 293.364 60.216 292.404 59.512C291.444 58.744 290.964 57.528 290.964 55.864C290.964 53.752 291.572 52.216 292.788 51.256C294.004 50.232 296.02 49.656 298.836 49.528L303.924 49.336C305.588 40.312 306.42 33.432 306.42 28.696C306.42 25.688 305.972 23.64 305.076 22.552C304.18 21.464 302.996 20.92 301.524 20.92C297.044 20.92 291.988 24.664 286.356 32.152C285.524 33.24 284.596 33.784 283.572 33.784C282.676 33.784 281.908 33.368 281.268 32.536C280.628 31.704 280.308 30.648 280.308 29.368C280.308 27.384 281.108 25.272 282.708 23.032C285.524 19.128 289.076 15.928 293.364 13.432C297.652 10.872 302.004 9.592 306.42 9.592C310.58 9.592 313.78 11.032 316.02 13.912C318.324 16.728 319.476 21.144 319.476 27.16C319.476 32.472 318.708 39.672 317.172 48.76L326.58 48.28C330.612 48.088 334.068 47.768 336.948 47.32C338.1 40.28 339.86 33.688 342.228 27.544C344.596 21.4 347.54 16.408 351.06 12.568C354.58 8.728 358.516 6.808 362.868 6.808C366.068 6.808 368.596 8.088 370.452 10.648C372.308 13.144 373.236 16.44 373.236 20.536C373.236 36.408 365.14 47.416 348.948 53.56C348.756 56.12 348.66 58.776 348.66 61.528C348.66 68.248 349.492 73.016 351.156 75.832C352.82 78.648 355.156 80.056 358.164 80.056C360.788 80.056 363.188 79.384 365.364 78.04C367.54 76.632 370.004 74.264 372.756 70.936C373.524 70.04 374.388 69.592 375.348 69.592ZM362.388 15.16C360.98 15.16 359.476 16.44 357.876 19C356.34 21.56 354.868 25.048 353.46 29.464C352.052 33.88 350.932 38.712 350.1 43.96C355.22 41.848 358.996 38.84 361.428 34.936C363.86 31.032 365.076 26.008 365.076 19.864C365.076 18.392 364.82 17.24 364.308 16.408C363.796 15.576 363.156 15.16 362.388 15.16ZM431.693 61.528C432.525 61.528 433.165 61.944 433.613 62.776C434.061 63.608 434.285 64.664 434.285 65.944C434.285 69.016 433.357 70.84 431.501 71.416C427.661 72.76 423.437 73.528 418.829 73.72C417.613 79.096 415.213 83.416 411.629 86.68C408.045 89.88 403.981 91.48 399.437 91.48C395.597 91.48 392.301 90.552 389.549 88.696C386.861 86.84 384.813 84.376 383.405 81.304C381.997 78.232 381.293 74.904 381.293 71.32C381.293 66.456 382.221 62.136 384.077 58.36C385.933 54.52 388.493 51.544 391.757 49.432C395.021 47.256 398.637 46.168 402.605 46.168C407.469 46.168 411.373 47.864 414.317 51.256C417.325 54.584 419.085 58.712 419.597 63.64C422.605 63.448 426.189 62.808 430.349 61.72C430.861 61.592 431.309 61.528 431.693 61.528ZM400.205 81.304C402.253 81.304 404.013 80.472 405.485 78.808C407.021 77.144 408.045 74.744 408.557 71.608C406.573 70.264 405.037 68.504 403.949 66.328C402.925 64.152 402.413 61.848 402.413 59.416C402.413 58.392 402.509 57.368 402.701 56.344H402.221C399.661 56.344 397.517 57.592 395.789 60.088C394.125 62.52 393.293 65.976 393.293 70.456C393.293 73.976 393.965 76.664 395.309 78.52C396.717 80.376 398.349 81.304 400.205 81.304ZM432.862 91.48C430.43 91.48 428.702 90.2 427.678 87.64C426.718 85.08 426.238 80.984 426.238 75.352C426.238 67.032 427.422 59.128 429.79 51.64C430.366 49.784 431.294 48.44 432.574 47.608C433.918 46.712 435.774 46.264 438.142 46.264C439.422 46.264 440.318 46.424 440.83 46.744C441.342 47.064 441.598 47.672 441.598 48.568C441.598 49.592 441.118 51.896 440.158 55.48C439.518 58.04 439.006 60.28 438.622 62.2C438.238 64.056 437.918 66.392 437.662 69.208C439.39 64.216 441.438 59.992 443.806 56.536C446.238 53.08 448.702 50.52 451.198 48.856C453.758 47.128 456.158 46.264 458.398 46.264C460.638 46.264 462.206 46.776 463.102 47.8C464.062 48.824 464.542 50.392 464.542 52.504C464.542 54.552 463.934 58.264 462.718 63.64C462.206 65.944 461.854 67.672 461.662 68.824C464.862 60.952 468.414 55.224 472.318 51.64C476.222 48.056 479.87 46.264 483.262 46.264C487.422 46.264 489.502 48.344 489.502 52.504C489.502 55 488.798 59.512 487.39 66.04C486.174 71.608 485.566 75.288 485.566 77.08C485.566 79.64 486.494 80.92 488.35 80.92C489.63 80.92 491.134 80.152 492.862 78.616C494.654 77.016 497.022 74.456 499.966 70.936C500.734 70.04 501.598 69.592 502.558 69.592C503.39 69.592 504.03 69.976 504.478 70.744C504.99 71.512 505.246 72.568 505.246 73.912C505.246 76.472 504.638 78.456 503.422 79.864C500.67 83.256 497.694 86.04 494.494 88.216C491.358 90.392 487.774 91.48 483.742 91.48C480.478 91.48 478.014 90.552 476.35 88.696C474.686 86.776 473.854 84.024 473.854 80.44C473.854 78.648 474.302 75.448 475.198 70.84C476.03 66.808 476.446 64.024 476.446 62.488C476.446 61.464 476.094 60.952 475.39 60.952C474.558 60.952 473.374 62.04 471.838 64.216C470.302 66.328 468.766 69.144 467.23 72.664C465.694 76.184 464.446 79.896 463.486 83.8C462.782 86.872 461.95 88.92 460.99 89.944C460.094 90.968 458.622 91.48 456.574 91.48C454.462 91.48 452.862 90.488 451.774 88.504C450.75 86.456 450.238 83.992 450.238 81.112C450.238 78.68 450.558 75.16 451.198 70.552C451.71 66.456 451.966 63.768 451.966 62.488C451.966 61.464 451.614 60.952 450.91 60.952C449.95 60.952 448.734 62.104 447.262 64.408C445.79 66.712 444.35 69.656 442.942 73.24C441.598 76.824 440.51 80.344 439.678 83.8C438.974 86.808 438.142 88.856 437.182 89.944C436.286 90.968 434.846 91.48 432.862 91.48ZM531.851 72.472C532.683 72.472 533.323 72.856 533.771 73.624C534.283 74.392 534.539 75.448 534.539 76.792C534.539 79.096 533.995 81.08 532.907 82.744C531.115 85.496 528.747 87.64 525.803 89.176C522.923 90.712 519.467 91.48 515.435 91.48C509.291 91.48 504.523 89.656 501.131 86.008C497.739 82.296 496.043 77.304 496.043 71.032C496.043 66.616 496.971 62.52 498.827 58.744C500.683 54.904 503.243 51.864 506.507 49.624C509.835 47.384 513.579 46.264 517.739 46.264C521.451 46.264 524.427 47.384 526.667 49.624C528.907 51.8 530.027 54.776 530.027 58.552C530.027 62.968 528.427 66.776 525.227 69.976C522.091 73.112 516.715 75.608 509.099 77.464C510.635 80.408 513.227 81.88 516.875 81.88C519.499 81.88 521.643 81.272 523.307 80.056C525.035 78.84 527.019 76.792 529.259 73.912C530.027 72.952 530.891 72.472 531.851 72.472ZM516.107 55.672C513.739 55.672 511.723 57.048 510.059 59.8C508.459 62.552 507.659 65.88 507.659 69.784V69.976C511.435 69.08 514.411 67.736 516.587 65.944C518.763 64.152 519.851 62.072 519.851 59.704C519.851 58.488 519.499 57.528 518.795 56.824C518.155 56.056 517.259 55.672 516.107 55.672Z" fill="white"/>
</svg>
