<svg width="61" height="61" viewBox="0 0 61 61" fill="none" xmlns="http://www.w3.org/2000/svg">
<circle cx="30.5" cy="30.5" r="30.5" fill="#FFCF08"/>
<g clip-path="url(#clip0_5_98)">
<path d="M34.4491 45.3719H26.0469C25.5427 45.3719 25.2067 45.708 25.2067 46.2121C25.2067 46.7162 25.5427 47.0523 26.0469 47.0523H34.4491C34.9532 47.0523 35.2893 46.7162 35.2893 46.2121C35.2893 45.708 34.9532 45.3719 34.4491 45.3719ZM36.1295 42.011H24.3664C23.8623 42.011 23.5262 42.3471 23.5262 42.8512C23.5262 43.3554 23.8623 43.6915 24.3664 43.6915H36.1295C36.6337 43.6915 36.9697 43.3554 36.9697 42.8512C36.9697 42.3471 36.6337 42.011 36.1295 42.011ZM30.248 10.0826C22.3499 10.0826 15.9642 16.3003 15.9642 23.8623C15.9642 27.8953 17.8127 31.6763 20.9215 34.281C21.5937 34.7851 21.9298 35.6253 21.9298 36.4656V37.6419C21.9298 39.1543 23.1901 40.4146 24.6185 40.4146H35.7934C37.3058 40.4146 38.4821 39.1543 38.4821 37.6419V36.4656C38.4821 35.6253 38.8182 34.8691 39.4904 34.281C42.5992 31.6763 44.4477 27.8953 44.4477 23.8623C44.5317 16.3003 38.1461 10.0826 30.248 10.0826ZM39.4064 25.5427C38.9863 25.5427 38.6502 25.2066 38.6502 24.7865C38.5662 22.6019 37.6419 20.3333 36.1295 18.6529C35.1213 17.5606 33.3568 16.2163 30.8361 16.2163C30.416 16.2163 29.9959 15.8802 29.9959 15.376C29.9959 14.8719 30.332 14.5358 30.8361 14.5358C33.2728 14.5358 35.5414 15.5441 37.3058 17.4766C39.0703 19.4091 40.1626 22.0978 40.2466 24.7025C40.3306 25.1226 39.9105 25.5427 39.4064 25.5427ZM32.7686 48.7328H27.7273C27.2232 48.7328 26.8871 49.0689 26.8871 49.573C26.8871 50.0771 27.2232 50.4132 27.7273 50.4132H32.7686C33.2728 50.4132 33.6089 50.0771 33.6089 49.573C33.6089 49.0689 33.2728 48.7328 32.7686 48.7328Z" fill="white"/>
</g>
<defs>
<clipPath id="clip0_5_98">
<rect width="40.3306" height="40.3306" fill="white" transform="translate(10.0826 10.0826)"/>
</clipPath>
</defs>
</svg>
