<svg width="61" height="61" viewBox="0 0 61 61" fill="none" xmlns="http://www.w3.org/2000/svg">
<circle cx="30.5" cy="30.5" r="30.5" fill="#1DB0EF"/>
<path d="M40 44.125C40.25 43.875 40.75 43.625 41.25 43.625C43.75 43.625 44.5 46.375 47.25 44.375C47 42.875 45.75 39.875 43.5 35.875C41.5 39.625 40.25 42.625 40 44.125ZM20.5 36.875L36 21.375C36.5 20.875 37.25 20.875 37.75 21.375C38.25 21.875 38.25 22.625 37.75 23.125L22.25 38.625C22.5 39.125 22.5 39.625 22.5 40.125C22.5 42.125 20.75 43.875 18.75 43.875C16.75 43.875 15 42.125 15 40.125C15 38.125 16.75 36.375 18.75 36.375C19.5 36.375 20 36.625 20.5 36.875V36.875ZM19.75 34.125H18.75C15.25 34.125 12.5 36.875 12.5 40.125C12.5 43.625 15.25 46.125 18.75 46.125C22.25 46.125 25 43.625 25 40.125V39.625L44.75 19.875C46.25 18.375 46.25 16.125 44.75 14.625C43.25 13.125 41 13.125 39.5 14.625L19.75 34.125V34.125ZM18.75 31.625L37.5 12.875C40 10.375 44 10.375 46.25 12.875C48.5 15.375 48.75 19.375 46.25 21.625L27.5 40.375C27.25 45.125 23.5 48.625 18.75 48.625C14 48.625 10 44.875 10 40.125C10 35.375 14 31.625 18.75 31.625V31.625ZM43.75 51.125C40.25 51.125 37.5 48.375 37.5 44.875C37.5 42.625 39.5 38.125 43.75 31.625C48 38.125 50 42.625 50 44.875C50 48.375 47.25 51.125 43.75 51.125Z" fill="white"/>
</svg>
