<svg width="61" height="61" viewBox="0 0 61 61" fill="none" xmlns="http://www.w3.org/2000/svg">
<circle cx="30.5" cy="30.5" r="30.5" fill="#FFCF08"/>
<path d="M32.7343 30.3823V26.4528C32.7343 25.2706 31.984 24.2639 30.9337 23.8823V9.93357C30.9337 9.418 30.5157 9 30.0001 9C29.4845 9 29.0665 9.418 29.0665 9.93357V23.8823C28.0161 24.2639 27.2659 25.2706 27.2659 26.4528V30.3823C20.2383 31.6264 14.8158 37.5776 14.3859 44.8508H45.6143C45.1844 37.5776 39.7618 31.6264 32.7343 30.3823V30.3823ZM30.0001 50.9991C33.2662 50.9991 36.1401 49.2893 37.7746 46.7179H22.2255C23.86 49.2893 26.734 50.9991 30.0001 50.9991Z" fill="white"/>
</svg>
