<svg width="61" height="61" viewBox="0 0 61 61" fill="none" xmlns="http://www.w3.org/2000/svg">
<circle cx="30.5" cy="30.5" r="30.5" fill="#383838" fill-opacity="0.5"/>
<path d="M33.3484 30.3823V26.4528C33.3484 25.2706 32.5981 24.2639 31.5478 23.8823V9.93357C31.5478 9.418 31.1298 9 30.6142 9C30.0986 9 29.6806 9.418 29.6806 9.93357V23.8823C28.6303 24.2639 27.88 25.2706 27.88 26.4528V30.3823C20.8525 31.6264 15.4299 37.5776 15 44.8508H46.2284C45.7985 37.5776 40.376 31.6264 33.3484 30.3823V30.3823ZM30.6142 50.9991C33.8803 50.9991 36.7542 49.2893 38.3888 46.7179H22.8397C24.4741 49.2893 27.3481 50.9991 30.6142 50.9991Z" fill="#FFCF08"/>
</svg>
