<svg width="61" height="61" viewBox="0 0 61 61" fill="none" xmlns="http://www.w3.org/2000/svg">
<circle cx="30.5" cy="30.5" r="30.5" fill="#383838" fill-opacity="0.5"/>
<g clip-path="url(#clip0_159_302)">
<path d="M25.045 25.0649H20.01V19.1908C20.01 17.9121 20.2631 16.7199 20.7693 15.6144C21.2754 14.5088 21.9747 13.5365 22.8672 12.6973C23.7596 11.8581 24.8119 11.1988 26.024 10.7193C27.2361 10.2398 28.5615 10 30 10C31.2788 10 32.5109 10.2398 33.6963 10.7193C34.8818 11.1988 35.9341 11.8581 36.8532 12.6973C37.7723 13.5365 38.5049 14.5088 39.051 15.6144C39.5971 16.7199 39.8702 17.9121 39.8702 19.1908V25.0649H35.035V20.3097C35.035 18.6314 34.5688 17.3327 33.6364 16.4136C32.704 15.4945 31.4386 15.035 29.8402 15.035C28.4016 15.035 27.2428 15.4945 26.3637 16.4136C25.4845 17.3327 25.045 18.6314 25.045 20.3097V25.0649ZM42.2678 27.4625C42.987 27.4625 43.6064 27.7223 44.1259 28.2418C44.6454 28.7612 44.9051 29.3806 44.9051 30.0999V42.4875C44.9051 43.2068 44.7786 43.8795 44.5255 44.5055C44.2724 45.1315 43.9261 45.6777 43.4865 46.1439C43.047 46.6101 42.5275 46.9764 41.9281 47.2428C41.3287 47.5092 40.6694 47.6424 39.9501 47.6424H19.7703C19.051 47.6424 18.3983 47.5092 17.8122 47.2428C17.2261 46.9764 16.7266 46.6234 16.3137 46.1838C15.9008 45.7443 15.5811 45.2314 15.3547 44.6454C15.1282 44.0593 15.015 43.4332 15.015 42.7672V30.0999C15.015 29.3806 15.2681 28.7612 15.7743 28.2418C16.2804 27.7223 16.8931 27.4625 17.6124 27.4625H20.01H25.045H35.035H39.8702H42.2678V27.4625Z" fill="#6BE7E6"/>
</g>
<defs>
<clipPath id="clip0_159_302">
<rect width="40" height="40" fill="white" transform="translate(10 10)"/>
</clipPath>
</defs>
</svg>
