<svg width="61" height="61" viewBox="0 0 61 61" fill="none" xmlns="http://www.w3.org/2000/svg">
<circle cx="30.5" cy="30.5" r="30.5" fill="#6BE7E6"/>
<g clip-path="url(#clip0_5_114)">
<path d="M25.045 26.0649H20.01V20.1908C20.01 18.9121 20.2631 17.7199 20.7693 16.6144C21.2754 15.5088 21.9747 14.5365 22.8672 13.6973C23.7596 12.8581 24.8119 12.1988 26.024 11.7193C27.2361 11.2398 28.5615 11 30 11C31.2788 11 32.5109 11.2398 33.6963 11.7193C34.8818 12.1988 35.9341 12.8581 36.8532 13.6973C37.7723 14.5365 38.5049 15.5088 39.051 16.6144C39.5971 17.7199 39.8702 18.9121 39.8702 20.1908V26.0649H35.035V21.3097C35.035 19.6314 34.5688 18.3327 33.6364 17.4136C32.704 16.4945 31.4386 16.035 29.8402 16.035C28.4016 16.035 27.2428 16.4945 26.3637 17.4136C25.4845 18.3327 25.045 19.6314 25.045 21.3097V26.0649ZM42.2678 28.4625C42.987 28.4625 43.6064 28.7223 44.1259 29.2418C44.6454 29.7612 44.9051 30.3806 44.9051 31.0999V43.4875C44.9051 44.2068 44.7786 44.8795 44.5255 45.5055C44.2724 46.1315 43.9261 46.6777 43.4865 47.1439C43.047 47.6101 42.5275 47.9764 41.9281 48.2428C41.3287 48.5092 40.6694 48.6424 39.9501 48.6424H19.7703C19.051 48.6424 18.3983 48.5092 17.8122 48.2428C17.2261 47.9764 16.7266 47.6234 16.3137 47.1838C15.9008 46.7443 15.5811 46.2314 15.3547 45.6454C15.1282 45.0593 15.015 44.4332 15.015 43.7672V31.0999C15.015 30.3806 15.2681 29.7612 15.7743 29.2418C16.2804 28.7223 16.8931 28.4625 17.6124 28.4625H20.01H25.045H35.035H39.8702H42.2678V28.4625Z" fill="white"/>
</g>
<defs>
<clipPath id="clip0_5_114">
<rect width="40" height="40" fill="white" transform="translate(10 11)"/>
</clipPath>
</defs>
</svg>
