<svg width="61" height="61" viewBox="0 0 61 61" fill="none" xmlns="http://www.w3.org/2000/svg">
<circle cx="30.5" cy="30.5" r="30.5" fill="#1DB0EF"/>
<path d="M20.5125 34.6333C20.2188 33.9479 19.4355 33.5562 18.75 33.7521C17.8688 34.0458 17.4771 34.9271 17.7709 35.7104C19.8271 40.8021 24.723 44.3271 30.5 44.3271C36.2771 44.3271 41.173 40.8021 43.2292 35.7104C43.523 34.9271 43.0334 33.9479 42.25 33.7521C41.5646 33.5562 40.7813 33.9479 40.4875 34.6333C38.823 38.6479 35.0042 41.3896 30.5 41.3896C26.0938 41.3896 22.1771 38.55 20.5125 34.6333V34.6333Z" fill="white"/>
<path d="M47.9292 35.4167C47.2437 35.2208 46.4604 35.6125 46.1667 36.2979C43.9146 42.6625 37.7458 47.2646 30.5979 47.2646C23.45 47.2646 17.2812 42.6625 14.8333 36.2979C14.6375 35.6125 13.8542 35.2208 13.0708 35.4167C12.2875 35.7104 11.7979 36.5917 12.0917 37.375C14.8333 44.8167 22.1771 50.2021 30.5 50.2021C38.9208 50.2021 46.1667 44.8167 48.8104 37.375C49.1042 36.4937 48.6146 35.6125 47.9292 35.4167V35.4167Z" fill="white"/>
<path d="M30.5 38.4521C33.5355 38.4521 36.1792 36.6896 37.4521 34.1438C37.9417 33.3604 37.4521 32.3813 36.5709 32.0875C35.9834 31.8917 35.2 32.1854 34.9063 32.7729C34.123 34.4375 32.4584 35.5146 30.5 35.5146C28.5417 35.5146 26.975 34.4375 26.0938 32.7729C25.8 32.1854 25.1146 31.8917 24.4292 32.0875C23.548 32.3813 23.1563 33.3604 23.548 34.1438C24.9188 36.6896 27.5625 38.4521 30.5 38.4521ZM45.1875 16.8125H43.2292V14.8542C43.2292 13.7771 42.348 12.8958 41.2709 12.8958H19.7292C18.6521 12.8958 17.7709 13.7771 17.7709 14.8542V16.8125H15.8125C13.6584 16.8125 11.8959 18.575 11.8959 20.7292V24.6458C11.8959 26.8 13.6584 28.5625 15.8125 28.5625H45.1875C47.3417 28.5625 49.1042 26.8 49.1042 24.6458V20.7292C49.1042 18.575 47.3417 16.8125 45.1875 16.8125ZM19.7292 24.6458C18.6521 24.6458 17.7709 23.7646 17.7709 22.6875C17.7709 21.6104 18.6521 20.7292 19.7292 20.7292C20.8063 20.7292 21.6875 21.6104 21.6875 22.6875C21.6875 23.7646 20.8063 24.6458 19.7292 24.6458ZM26.5834 24.6458C25.5063 24.6458 24.625 23.7646 24.625 22.6875C24.625 21.6104 25.5063 20.7292 26.5834 20.7292C27.6605 20.7292 28.5417 21.6104 28.5417 22.6875C28.5417 23.7646 27.6605 24.6458 26.5834 24.6458ZM33.4375 24.6458C32.3605 24.6458 31.4792 23.7646 31.4792 22.6875C31.4792 21.6104 32.3605 20.7292 33.4375 20.7292C34.5146 20.7292 35.3959 21.6104 35.3959 22.6875C35.3959 23.7646 34.5146 24.6458 33.4375 24.6458ZM40.2917 24.6458C39.2146 24.6458 38.3334 23.7646 38.3334 22.6875C38.3334 21.6104 39.2146 20.7292 40.2917 20.7292C41.3688 20.7292 42.25 21.6104 42.25 22.6875C42.25 23.7646 41.3688 24.6458 40.2917 24.6458Z" fill="white"/>
</svg>
