<svg width="61" height="61" viewBox="0 0 61 61" fill="none" xmlns="http://www.w3.org/2000/svg">
<circle cx="30.5" cy="30.5" r="30.5" fill="#37CC3D"/>
<path d="M47.4394 14.0211H13.5605C12.3736 14.0211 11.4026 14.9921 11.4026 16.179V46.7132C11.4026 47.9 12.3736 48.8711 13.5605 48.8711H47.3315C48.5184 48.8711 49.4894 47.9 49.4894 46.7132V16.2868C49.5973 14.9921 48.6263 14.0211 47.4394 14.0211ZM48.0868 46.7132C48.0868 47.1447 47.7631 47.3605 47.4394 47.3605H13.5605C13.1289 47.3605 12.9131 47.0368 12.9131 46.7132V16.2868C12.9131 15.8553 13.2368 15.6395 13.5605 15.6395H47.3315C47.7631 15.6395 47.9789 15.9632 47.9789 16.2868V46.7132H48.0868Z" fill="white"/>
<path d="M27.5869 21.8974H19.3869C18.9553 21.8974 18.6316 22.2211 18.6316 22.6526C18.6316 23.0842 18.9553 23.4079 19.3869 23.4079H27.5869C28.0184 23.4079 28.3421 23.0842 28.3421 22.6526C28.3421 22.2211 28.0184 21.8974 27.5869 21.8974V21.8974ZM41.829 37.8658H33.629C33.1974 37.8658 32.8737 38.1895 32.8737 38.6211C32.8737 39.0526 33.1974 39.3763 33.629 39.3763H41.829C42.2605 39.3763 42.5842 39.0526 42.5842 38.6211C42.5842 38.1895 42.2605 37.8658 41.829 37.8658V37.8658Z" fill="white"/>
<path d="M43.879 17.5816H17.1211C16.15 17.5816 15.3948 18.4447 15.3948 19.4158V43.6921C15.3948 44.6632 16.15 45.4184 17.1211 45.4184H43.879C44.85 45.4184 45.6053 44.6632 45.6053 43.6921V19.4158C45.6053 18.4447 44.85 17.5816 43.879 17.5816V17.5816ZM16.9053 43.5842V19.4158C16.9053 19.3079 17.0132 19.2 17.1211 19.2H29.7448V43.9079H17.1211C17.0132 43.9079 16.9053 43.8 16.9053 43.5842V43.5842ZM44.0948 43.5842C44.0948 43.6921 43.9869 43.8 43.879 43.8H31.2553V19.0921H43.879C43.9869 19.0921 44.0948 19.2 44.0948 19.3079V43.5842V43.5842Z" fill="white"/>
</svg>
