<svg width="61" height="61" viewBox="0 0 61 61" fill="none" xmlns="http://www.w3.org/2000/svg">
<circle cx="30.5" cy="30.5" r="30.5" fill="#FFCF08"/>
<path d="M38.2181 19.9584C38.4169 19.7096 38.478 19.3599 38.3905 18.9739L36.0835 8.79964C35.8661 7.84101 34.8131 7.0001 33.8302 7.0001L26.17 7C25.187 7 24.1341 7.84091 23.9167 8.79955L21.6095 18.9741C21.5219 19.3601 21.5832 19.7097 21.7817 19.9585C21.9804 20.2073 22.3078 20.3443 22.7038 20.3443H37.2961C37.6921 20.3443 38.0195 20.2073 38.2181 19.9584V19.9584ZM33.3499 51.0591H30.9704V22.2852H29.0294V51.0591H26.6501C26.1141 51.0591 25.6796 51.4936 25.6796 52.0295C25.6796 52.5654 26.1141 53 26.6501 53H33.35C33.8859 53 34.3204 52.5654 34.3204 52.0295C34.3204 51.4936 33.8859 51.0591 33.3499 51.0591Z" fill="white"/>
</svg>
