<svg width="61" height="61" viewBox="0 0 61 61" fill="none" xmlns="http://www.w3.org/2000/svg">
<circle cx="30.5" cy="30.5" r="30.5" fill="#383838" fill-opacity="0.5"/>
<path d="M39.2181 19.9584C39.4169 19.7096 39.478 19.3599 39.3905 18.9739L37.0835 8.79964C36.8661 7.84101 35.8131 7.0001 34.8302 7.0001L27.17 7C26.187 7 25.1341 7.84091 24.9167 8.79955L22.6095 18.9741C22.5219 19.3601 22.5832 19.7097 22.7817 19.9585C22.9804 20.2073 23.3078 20.3443 23.7038 20.3443H38.2961C38.6921 20.3443 39.0195 20.2073 39.2181 19.9584V19.9584ZM34.3499 51.0591H31.9704V22.2852H30.0294V51.0591H27.6501C27.1141 51.0591 26.6796 51.4936 26.6796 52.0295C26.6796 52.5654 27.1141 53 27.6501 53H34.35C34.8859 53 35.3204 52.5654 35.3204 52.0295C35.3204 51.4936 34.8859 51.0591 34.3499 51.0591Z" fill="#FFCF08"/>
</svg>
