<svg width="61" height="61" viewBox="0 0 61 61" fill="none" xmlns="http://www.w3.org/2000/svg">
<circle cx="30.5" cy="30.5" r="30.5" fill="#383838" fill-opacity="0.5"/>
<path d="M43.0625 10.75H16.9375C15.425 10.75 14.1875 11.9875 14.1875 13.5V46.5C14.1875 48.0125 15.425 49.25 16.9375 49.25H43.0625C44.575 49.25 45.8125 48.0125 45.8125 46.5V13.5C45.8125 11.9875 44.575 10.75 43.0625 10.75ZM43.0625 45.8125C43.0625 46.225 42.7875 46.5 42.375 46.5H17.625C17.2125 46.5 16.9375 46.225 16.9375 45.8125V14.1875C16.9375 13.775 17.2125 13.5 17.625 13.5H42.375C42.7875 13.5 43.0625 13.775 43.0625 14.1875V45.8125ZM38.9375 16.25H21.0625C20.3062 16.25 19.6875 16.8687 19.6875 17.625C19.6875 18.3813 20.3062 19 21.0625 19H38.9375C39.6938 19 40.3125 18.3813 40.3125 17.625C40.3125 16.8687 39.6938 16.25 38.9375 16.25ZM32.0625 32.0625C32.0625 31.4438 31.3062 30.6875 30.6875 30.6875C30.0688 30.6875 29.45 31.1 29.45 31.7188C29.45 35.2937 28.4875 38.7312 26.6313 41.7562C26.2875 42.3062 26.0813 43.4062 26.5625 43.75C27.0437 44.0938 28.2812 44.3 28.625 43.75C30.6875 40.45 32.0625 36.7375 32.0625 32.75V32.0625ZM23.125 31.375C23.1938 30.1375 23.3313 28.9 23.95 27.8687C24.225 27.3187 24.0875 26.6313 23.5375 26.3563C22.9875 26.0813 22.025 26.0813 21.75 26.5625C20.925 28.075 20.375 29.5875 20.375 31.375C20.3062 32.75 20.7188 34.2625 19.825 36.05C19.55 36.6 19.7562 37.2875 20.3062 37.5625C21.4062 37.975 22.1625 37.425 22.4375 36.875C23.1938 35.225 23.125 33.2313 23.125 31.375V31.375ZM30.6875 25.875C27.6625 25.875 25.1875 27.8688 25.1875 30.6875C25.1875 33.3688 24.5687 36.6688 23.125 38.9375L22.9188 39.4875L22.85 39.625C22.6438 40.1062 22.7812 40.725 23.125 41C23.5375 41.3438 24.9125 41.55 25.1875 41C26.6312 38.4562 27.9375 35.0188 27.9375 32.0625C27.9375 30.2062 28.7625 28.4188 30.55 28.4188C32.3375 28.4188 33.7812 29.9313 33.7812 31.7188C33.7812 32.75 33.7125 33.85 33.575 34.8812C33.5063 35.5 33.9187 36.05 34.5375 36.1188C35.1562 36.1875 36.1187 35.3625 36.1875 34.8125C36.325 33.6437 36.1875 33.2313 36.1875 32.0625C36.1875 28.9688 33.7125 25.875 30.6875 25.875ZM30.6875 21.75C28.9688 21.75 27.1125 22.2312 25.6688 23.0562C24.9125 23.675 24.9125 24.6375 25.1875 25.1875C25.4625 25.7375 26.0125 26.0813 26.5625 25.875C27.7313 25.1875 29.3813 24.5 30.6875 24.5C34.8812 24.5 37.5625 27.8 37.5625 32.0625C37.7 34.95 37.975 34.8125 36.875 39.625C36.7375 40.2437 36.7375 40.7937 37.5625 41C38.5938 41.275 39.4875 40.2437 39.625 39.625C40.2437 36.5312 40.3125 34.8812 40.3125 32.0625C40.3125 26.0125 36.05 21.75 30.6875 21.75ZM33.5062 37.9062C33.5062 37.9062 33.1625 38.8 33.025 39.35C32.8188 40.7937 32.6125 40.2438 32.5438 40.7938C31.7188 42.925 32.0625 41.8937 30.8937 43.8187C30.6875 44.3687 31.1687 45.0563 31.7875 45.0563C32.8875 45.125 34.125 43.8875 34.3312 43.3375C35.0875 41.7563 36.2562 39.625 35.7062 38.25C34.8812 37.6313 34.6062 37.425 33.5062 37.9062V37.9062Z" fill="#6BE7E6"/>
</svg>
