<svg width="61" height="61" viewBox="0 0 61 61" fill="none" xmlns="http://www.w3.org/2000/svg">
<circle cx="30.5" cy="30.5" r="30.5" fill="#37CC3D"/>
<path d="M48.3457 11H12.6543C11.9504 11 11.2752 11.282 10.7774 11.7839C10.2797 12.2857 10 12.9665 10 13.6762C10 14.386 10.2797 15.0667 10.7774 15.5686C11.2752 16.0705 11.9504 16.3525 12.6543 16.3525H48.3457C49.0496 16.3525 49.7248 16.0705 50.2226 15.5686C50.7203 15.0667 51 14.386 51 13.6762C51 12.9665 50.7203 12.2857 50.2226 11.7839C49.7248 11.282 49.0496 11 48.3457 11V11ZM14.6135 18.1685C14.2628 18.1685 13.9265 18.3084 13.6778 18.5576C13.4291 18.8068 13.2884 19.1452 13.2863 19.4987V49.5587C13.2864 49.9135 13.4262 50.2538 13.6751 50.5047C13.924 50.7556 14.2615 50.8966 14.6135 50.8966C14.9654 50.8966 15.303 50.7556 15.5518 50.5047C15.8007 50.2538 15.9406 49.9135 15.9406 49.5587V19.4668C15.9304 19.1189 15.786 18.7887 15.5382 18.5463C15.2904 18.3039 14.9587 18.1684 14.6135 18.1685V18.1685ZM18.1526 18.1685C17.802 18.1685 17.4656 18.3084 17.2169 18.5576C16.9683 18.8068 16.8275 19.1452 16.8254 19.4987V49.5587C16.8254 49.9136 16.9653 50.2539 17.2142 50.5049C17.4631 50.7558 17.8006 50.8968 18.1526 50.8968C18.5046 50.8968 18.8422 50.7558 19.0911 50.5049C19.34 50.2539 19.4798 49.9136 19.4798 49.5587V19.4668C19.4695 19.1189 19.3252 18.7887 19.0774 18.5463C18.8296 18.3039 18.4979 18.1684 18.1526 18.1685V18.1685ZM21.5732 18.1685C21.2315 18.1725 20.9046 18.3101 20.6615 18.5523C20.4183 18.7945 20.2779 19.1223 20.2697 19.4668V49.5587C20.2556 49.7426 20.2794 49.9274 20.3395 50.1016C20.3996 50.2757 20.4947 50.4355 20.619 50.5709C20.7432 50.7062 20.8939 50.8142 21.0615 50.888C21.2291 50.9619 21.41 51 21.593 51C21.7759 51 21.9568 50.9619 22.1244 50.888C22.292 50.8142 22.4427 50.7062 22.5669 50.5709C22.6912 50.4355 22.7863 50.2757 22.8464 50.1016C22.9065 49.9274 22.9303 49.7426 22.9162 49.5587V19.4668C22.9058 19.1161 22.7593 18.7835 22.5081 18.5407C22.2569 18.2978 21.9212 18.1642 21.5732 18.1685V18.1685ZM24.7805 18.1685C24.4312 18.1621 24.0934 18.2948 23.8405 18.5378C23.5876 18.7809 23.44 19.1147 23.4297 19.4668V49.5587C23.4297 49.9136 23.5695 50.2539 23.8184 50.5049C24.0673 50.7558 24.4048 50.8968 24.7568 50.8968C25.1088 50.8968 25.4464 50.7558 25.6953 50.5049C25.9442 50.2539 26.084 49.9136 26.084 49.5587V19.4668C26.0739 19.123 25.9329 18.7963 25.6901 18.5545C25.4474 18.3127 25.1217 18.1745 24.7805 18.1685V18.1685ZM39.0949 38.5908L35.6112 48.8817C35.6122 49.1494 35.6659 49.4142 35.7692 49.6609C35.8725 49.9075 36.0233 50.131 36.2128 50.3184C36.4024 50.5059 36.627 50.6535 36.8736 50.7528C37.1202 50.8521 37.3839 50.901 37.6494 50.8968H45.715C46.2445 50.8947 46.7516 50.6817 47.126 50.3043C47.5004 49.9268 47.7116 49.4155 47.7137 48.8817V20.1518C47.7054 19.6229 47.4912 19.1185 47.1173 18.7474C46.7433 18.3764 46.2397 18.1684 45.715 18.1685H34.9634C34.4333 18.1685 33.925 18.3808 33.5502 18.7587C33.1753 19.1367 32.9648 19.6492 32.9648 20.1837C32.9648 20.1837 32.8621 22.2307 34.758 27.3522C35.1846 28.5231 39.095 38.5909 39.095 38.5909L39.0949 38.5908Z" fill="white"/>
</svg>
