<svg width="61" height="61" viewBox="0 0 61 61" fill="none" xmlns="http://www.w3.org/2000/svg">
<circle cx="30.5" cy="30.5" r="30.5" fill="#FFCF08"/>
<path d="M32.0465 44.9H37.5055C37.8868 44.9 38.2524 45.0514 38.522 45.321C38.7915 45.5906 38.943 45.9563 38.943 46.3375C38.943 46.7188 38.7915 47.0844 38.522 47.354C38.2524 47.6236 37.8868 47.775 37.5055 47.775H23.4266C23.0454 47.775 22.6797 47.6236 22.4102 47.354C22.1406 47.0844 21.9891 46.7188 21.9891 46.3375C21.9891 45.9563 22.1406 45.5906 22.4102 45.321C22.6797 45.0514 23.0454 44.9 23.4266 44.9H29.1729V37.7116C29.1729 37.3306 29.3243 36.9651 29.5937 36.6957C29.8632 36.4262 30.2286 36.2749 30.6097 36.2749C30.9907 36.2749 31.3562 36.4262 31.6256 36.6957C31.8951 36.9651 32.0465 37.3306 32.0465 37.7116V44.9ZM40.0924 35.5456V40.1568C40.0924 40.4236 39.9865 40.6794 39.7978 40.868C39.6092 41.0567 39.3534 41.1626 39.0866 41.1626C38.8198 41.1626 38.564 41.0567 38.3754 40.868C38.1868 40.6794 38.0808 40.4236 38.0808 40.1568V35.5453H18.4373C18.2197 35.5453 18.0049 35.4959 17.8091 35.4007C17.6134 35.3056 17.4418 35.1672 17.3073 34.9961C17.1728 34.825 17.0789 34.6256 17.0327 34.4129C16.9866 34.2002 16.9893 33.9798 17.0407 33.7683L21.3394 16.0977C21.4155 15.7847 21.5946 15.5063 21.8479 15.3073C22.1011 15.1082 22.4139 15 22.736 15H38.5759C38.898 15 39.2108 15.1082 39.464 15.3073C39.7173 15.5063 39.8964 15.7847 39.9725 16.0977L44.2712 33.7683C44.3227 33.9798 44.3255 34.2002 44.2793 34.4129C44.2332 34.6256 44.1393 34.8251 44.0048 34.9962C43.8704 35.1674 43.6988 35.3057 43.5031 35.4009C43.3073 35.4961 43.0925 35.5456 42.8749 35.5456H40.0924Z" fill="white"/>
</svg>
