<svg width="61" height="61" viewBox="0 0 61 61" fill="none" xmlns="http://www.w3.org/2000/svg">
<circle cx="30.5" cy="30.5" r="30.5" fill="#37CC3D"/>
<path d="M12.75 43.4583H13.7083V44.4167C13.7083 45.4708 14.5708 46.3333 15.625 46.3333H19.4583C20.5125 46.3333 21.375 45.4708 21.375 44.4167V43.4583H38.625V44.4167C38.625 45.4708 39.4875 46.3333 40.5416 46.3333H44.375C45.4291 46.3333 46.2916 45.4708 46.2916 44.4167V43.4583H47.25C49.3583 43.4583 51.0833 41.7333 51.0833 39.625H8.91663C8.91663 41.7333 10.6416 43.4583 12.75 43.4583ZM47.25 31H43.4166V17.1042C43.4166 16.3375 42.7458 15.6667 41.9791 15.6667C41.2125 15.6667 40.5416 16.3375 40.5416 17.1042V31H19.4583V17.1042C19.4583 16.3375 18.7875 15.6667 18.0208 15.6667C17.2541 15.6667 16.5833 16.3375 16.5833 17.1042V31H12.75C10.6416 31 8.91663 32.725 8.91663 34.8333V37.7083H51.0833V34.8333C51.0833 32.725 49.3583 31 47.25 31V31ZM32.3958 35.7917C31.6291 35.7917 30.9583 35.1208 30.9583 34.3542C30.9583 33.5875 31.6291 32.9167 32.3958 32.9167C33.1625 32.9167 33.8333 33.5875 33.8333 34.3542C33.8333 35.1208 33.1625 35.7917 32.3958 35.7917ZM37.1875 35.7917C36.4208 35.7917 35.75 35.1208 35.75 34.3542C35.75 33.5875 36.4208 32.9167 37.1875 32.9167C37.9541 32.9167 38.625 33.5875 38.625 34.3542C38.625 35.1208 37.9541 35.7917 37.1875 35.7917ZM41.9791 35.7917C41.2125 35.7917 40.5416 35.1208 40.5416 34.3542C40.5416 33.5875 41.2125 32.9167 41.9791 32.9167C42.7458 32.9167 43.4166 33.5875 43.4166 34.3542C43.4166 35.1208 42.7458 35.7917 41.9791 35.7917Z" fill="white"/>
</svg>
