<svg width="61" height="61" viewBox="0 0 61 61" fill="none" xmlns="http://www.w3.org/2000/svg">
<circle cx="30.5" cy="30.5" r="30.5" fill="#383838" fill-opacity="0.5"/>
<path d="M13.75 43.4583H14.7083V44.4167C14.7083 45.4708 15.5708 46.3333 16.625 46.3333H20.4583C21.5125 46.3333 22.375 45.4708 22.375 44.4167V43.4583H39.625V44.4167C39.625 45.4708 40.4875 46.3333 41.5416 46.3333H45.375C46.4291 46.3333 47.2916 45.4708 47.2916 44.4167V43.4583H48.25C50.3583 43.4583 52.0833 41.7333 52.0833 39.625H9.91663C9.91663 41.7333 11.6416 43.4583 13.75 43.4583ZM48.25 31H44.4166V17.1042C44.4166 16.3375 43.7458 15.6667 42.9791 15.6667C42.2125 15.6667 41.5416 16.3375 41.5416 17.1042V31H20.4583V17.1042C20.4583 16.3375 19.7875 15.6667 19.0208 15.6667C18.2541 15.6667 17.5833 16.3375 17.5833 17.1042V31H13.75C11.6416 31 9.91663 32.725 9.91663 34.8333V37.7083H52.0833V34.8333C52.0833 32.725 50.3583 31 48.25 31V31ZM33.3958 35.7917C32.6291 35.7917 31.9583 35.1208 31.9583 34.3542C31.9583 33.5875 32.6291 32.9167 33.3958 32.9167C34.1625 32.9167 34.8333 33.5875 34.8333 34.3542C34.8333 35.1208 34.1625 35.7917 33.3958 35.7917ZM38.1875 35.7917C37.4208 35.7917 36.75 35.1208 36.75 34.3542C36.75 33.5875 37.4208 32.9167 38.1875 32.9167C38.9541 32.9167 39.625 33.5875 39.625 34.3542C39.625 35.1208 38.9541 35.7917 38.1875 35.7917ZM42.9791 35.7917C42.2125 35.7917 41.5416 35.1208 41.5416 34.3542C41.5416 33.5875 42.2125 32.9167 42.9791 32.9167C43.7458 32.9167 44.4166 33.5875 44.4166 34.3542C44.4166 35.1208 43.7458 35.7917 42.9791 35.7917Z" fill="#37CC3D"/>
</svg>
