<svg width="61" height="61" viewBox="0 0 61 61" fill="none" xmlns="http://www.w3.org/2000/svg">
<circle cx="30.5" cy="30.5" r="30.5" fill="#383838" fill-opacity="0.5"/>
<path d="M20.7682 17.1904L31.5464 27.9791C31.6377 28.0705 31.7848 28.0734 31.8797 27.9858C31.9871 27.8866 32.0932 27.7848 32.1976 27.6802C34.5301 25.3454 35.5534 22.2678 35.176 19.5485C35.0746 18.8172 35.3172 18.0803 35.8387 17.5582C37.0878 16.308 37.0878 14.2621 35.8387 13.0118L35.7165 12.8895C34.4675 11.6392 32.4236 11.6392 31.1745 12.8895C30.653 13.4115 29.9167 13.6544 29.1862 13.5528C26.4696 13.1751 23.3949 14.1993 21.0624 16.5341C20.9579 16.6387 20.8561 16.7449 20.7569 16.8525C20.6684 16.9485 20.6741 17.0964 20.7665 17.1888C20.767 17.1892 20.7676 17.1898 20.7682 17.1904Z" fill="#FFCF08"/>
<path d="M39.6183 46.919H39.006C38.7989 45.7393 38.0057 45.7678 36.7701 45.7678H32.808C32.945 45.4639 33.022 45.1277 33.022 44.7742C33.022 43.4359 31.9281 42.341 30.5912 42.341H30.3831C29.0461 42.341 27.9523 43.4359 27.9523 44.7742C27.9523 45.1278 28.0292 45.464 28.1662 45.7678H24.686C23.4504 45.7678 22.1753 45.7393 21.9683 46.919H21.356C20.4338 46.919 19.6792 47.6743 19.6792 48.5974V48.73C19.6792 49.6531 20.4337 49.4801 21.356 49.4801H39.6183C40.5405 49.4801 41.2951 49.6531 41.2951 48.73V48.5974C41.295 47.6743 40.5405 46.919 39.6183 46.919Z" fill="#FFCF08"/>
<path d="M32.8315 42.1074L32.6809 41.9748C32.3153 41.6528 32.2793 41.0899 32.601 40.7239L43.5257 28.2937C43.8474 27.9277 44.4098 27.8917 44.7754 28.2137L44.926 28.3463C45.2916 28.6683 45.3276 29.2312 45.0059 29.5972L34.0812 42.0274C33.7596 42.3934 33.1972 42.4294 32.8315 42.1074Z" fill="#FFCF08"/>
<path d="M43.023 27.5917C42.578 27.9018 41.9605 27.7911 41.6507 27.3457L36.4894 19.9245C36.1796 19.4791 36.2902 18.861 36.7352 18.5509C37.1802 18.2408 37.7977 18.3515 38.1075 18.7969L43.2688 26.2181C43.5786 26.6635 43.468 27.2816 43.023 27.5917Z" fill="#FFCF08"/>
</svg>
