<svg width="61" height="61" viewBox="0 0 61 61" fill="none" xmlns="http://www.w3.org/2000/svg">
<circle cx="30.5" cy="30.5" r="30.5" fill="#383838" fill-opacity="0.5"/>
<g clip-path="url(#clip0_161_530)">
<path d="M12.0474 28.6691C12.5834 28.669 13.0981 28.8803 13.4809 29.2577C13.8637 29.635 14.0841 30.1483 14.0949 30.6873V30.6393C14.0949 26.2615 15.8238 22.0631 18.9013 18.9675C21.9788 15.872 26.1528 14.1329 30.5051 14.1329C34.8573 14.1329 39.0313 15.872 42.1089 18.9675C45.1864 22.0631 46.9153 26.2615 46.9153 30.6393C46.9125 30.6552 46.9125 30.6714 46.9153 30.6873C46.9154 30.1412 47.1311 29.6174 47.5151 29.2313C47.8991 28.8451 48.4198 28.6282 48.9628 28.6282C49.5057 28.6282 50.0265 28.8451 50.4104 29.2313C50.7944 29.6174 51.0101 30.1412 51.0102 30.6873V30.6393C51.0138 25.1691 48.8569 19.9216 45.0141 16.051C41.1712 12.1805 35.957 10.004 30.5188 10.0003C25.0805 9.99667 19.8635 12.1662 16.0155 16.0316C12.1674 19.897 10.0036 25.1417 10 30.6118L10 30.6599C10.0177 30.1257 10.2412 29.6193 10.6233 29.2478C11.0054 28.8764 11.5161 28.6688 12.0474 28.6691V28.6691ZM30.4744 51.0002C19.3159 51.0002 10.2184 42.3575 10.2184 31.7376C10.2254 31.4753 10.2842 31.2169 10.3912 30.9776C10.4981 30.7382 10.6513 30.5226 10.8417 30.3432C11.0321 30.1637 11.2561 30.0241 11.5005 29.9324C11.745 29.8406 12.0051 29.7986 12.2658 29.8086C12.5266 29.7986 12.7867 29.8406 13.0311 29.9324C13.2756 30.0241 13.4995 30.1637 13.69 30.3431C13.8804 30.5226 14.0335 30.7382 14.1405 30.9776C14.2475 31.2169 14.3062 31.4753 14.3133 31.7376C14.2655 40.2225 21.5476 47.1491 30.4744 47.1491C39.4013 47.1491 46.7174 40.2225 46.7174 31.7377C46.7919 31.2516 47.0368 30.8083 47.408 30.4881C47.7791 30.1679 48.252 29.9919 48.741 29.9919C49.2299 29.9919 49.7028 30.1679 50.0739 30.4881C50.4451 30.8083 50.6901 31.2516 50.7645 31.7377C50.7645 42.3574 41.6738 51.0002 30.4744 51.0002ZM30.4744 46.3322C33.5603 46.339 36.579 45.425 39.1485 43.706C41.718 41.987 43.723 39.5401 44.9099 36.6748C46.0968 33.8095 46.4122 30.6546 45.8163 27.6089C45.2204 24.5633 43.7399 21.7639 41.5621 19.5647C39.3843 17.3654 36.607 15.8653 33.5815 15.2539C30.5559 14.6425 27.4181 14.9473 24.5649 16.1298C21.7116 17.3124 19.2711 19.3195 17.552 21.8973C15.8329 24.4751 14.9124 27.5078 14.907 30.6118C14.8998 34.7727 16.5356 38.7661 19.4549 41.714C22.3741 44.6619 26.3378 46.3231 30.4744 46.3322V46.3322ZM30.4744 18.5298C30.9417 18.5284 31.3989 18.6666 31.7882 18.9267C32.1774 19.1869 32.4811 19.5574 32.6609 19.9913C32.8407 20.4252 32.8885 20.903 32.7981 21.3642C32.7078 21.8254 32.4834 22.2493 32.1534 22.5821C31.8235 22.915 31.4027 23.1419 30.9445 23.2341C30.4862 23.3263 30.0111 23.2797 29.5792 23.1001C29.1473 22.9205 28.7781 22.6161 28.5183 22.2253C28.2585 21.8346 28.1199 21.3751 28.1199 20.905C28.119 20.5934 28.1792 20.2847 28.2971 19.9966C28.4151 19.7085 28.5883 19.4466 28.8071 19.2259C29.0258 19.0053 29.2857 18.8302 29.5718 18.7108C29.8579 18.5913 30.1646 18.5298 30.4744 18.5298V18.5298Z" fill="#37CC3D"/>
</g>
<defs>
<clipPath id="clip0_161_530">
<rect width="41" height="41" fill="white" transform="translate(10 10)"/>
</clipPath>
</defs>
</svg>
