<svg width="61" height="61" viewBox="0 0 61 61" fill="none" xmlns="http://www.w3.org/2000/svg">
<circle cx="30.5" cy="30.5" r="30.5" fill="#37CC3D"/>
<path d="M45.9783 14.1083C45.9784 12.5022 45.3957 11.8888 43.7672 11.8467C42.8511 11.8231 41.9339 11.8424 40.9729 11.8424L17.1902 11.8437C15.4166 11.8726 14.8214 12.4437 14.8196 14.1859C14.8077 25.7344 14.8036 37.2829 14.8044 48.8314C14.8046 50.4265 15.5059 51.0972 17.1637 51.0985C24.3179 51.1043 36.2322 51.1017 43.3865 51.0995C45.4255 51.0988 45.9791 50.5459 45.9789 48.5367C45.978 37.0606 45.9772 25.5844 45.9783 14.1083V14.1083ZM18.5573 16.6703C18.5613 15.2688 19.2376 14.692 20.682 14.6899C25.5985 14.6827 35.2751 14.6816 40.1916 14.6914C41.5851 14.6942 42.2886 15.3471 42.2959 16.7204C42.32 21.263 42.3229 25.8059 42.3004 30.3486C42.2934 31.7532 41.6394 32.3705 40.2065 32.3841C37.7117 32.4078 35.2165 32.3907 32.7216 32.3907V32.375C30.3006 32.375 23.1195 32.3845 20.6986 32.3716C19.1526 32.3633 18.6425 31.9375 18.6225 30.4052C18.5628 25.8273 18.544 21.2485 18.5572 16.6703L18.5573 16.6703ZM42.66 35.7474C42.66 36.031 42.428 36.2632 42.1443 36.2632H19.0061C18.7224 36.2632 18.4903 36.031 18.4903 35.7474C18.4903 35.4637 18.7224 35.2316 19.0061 35.2316H42.1442C42.4279 35.2316 42.66 35.4637 42.66 35.7474L42.66 35.7474ZM33.5443 31.918C34.8387 31.9705 36.1364 31.9436 37.5243 31.9436L38.3283 24.5386H32.1014C32.3721 26.8802 32.6161 29.1293 32.9166 31.3709C32.9455 31.586 33.3197 31.9089 33.5443 31.918V31.918ZM33.8074 27.2575C34.9258 27.3062 36.048 27.2705 37.2401 27.2705C37.1435 28.4443 37.0533 29.4421 36.9823 30.4414C36.9364 31.0871 36.6154 31.3672 35.9671 31.3183C35.2025 31.2606 34.4358 31.2319 33.6739 31.1908C33.4818 30.0735 33.3026 29.0882 33.1463 28.0992C33.0681 27.6046 33.1123 27.2273 33.8074 27.2575ZM25.1341 23.2673H25.9761L26.4452 20.7897C26.5004 20.4974 26.928 20.3567 26.928 19.8154V17.6384H24.184V19.8154C24.184 20.2684 24.6009 20.4929 24.6651 20.7897C24.7291 21.0864 25.1341 23.2673 25.1341 23.2673ZM34.8054 23.2673H35.6474L36.1165 20.7897C36.1718 20.4974 36.5993 20.3567 36.5993 19.8154V17.6384H33.8553V19.8154C33.8553 20.2684 34.2723 20.4929 34.3364 20.7897C34.4005 21.0864 34.8054 23.2673 34.8054 23.2673V23.2673Z" fill="white"/>
</svg>
