<svg width="41" height="41" viewBox="0 0 41 41" fill="none" xmlns="http://www.w3.org/2000/svg">
<g clip-path="url(#clip0_5_108)">
<path d="M24.4491 35.3719H16.0469C15.5427 35.3719 15.2067 35.708 15.2067 36.2121C15.2067 36.7162 15.5427 37.0523 16.0469 37.0523H24.4491C24.9532 37.0523 25.2893 36.7162 25.2893 36.2121C25.2893 35.708 24.9532 35.3719 24.4491 35.3719ZM26.1295 32.011H14.3664C13.8623 32.011 13.5262 32.3471 13.5262 32.8512C13.5262 33.3554 13.8623 33.6915 14.3664 33.6915H26.1295C26.6337 33.6915 26.9697 33.3554 26.9697 32.8512C26.9697 32.3471 26.6337 32.011 26.1295 32.011ZM20.248 0.0826416C12.3499 0.0826416 5.96423 6.30027 5.96423 13.8623C5.96423 17.8953 7.81272 21.6763 10.9215 24.281C11.5937 24.7851 11.9298 25.6253 11.9298 26.4656V27.6419C11.9298 29.1543 13.1901 30.4146 14.6185 30.4146H25.7934C27.3058 30.4146 28.4821 29.1543 28.4821 27.6419V26.4656C28.4821 25.6253 28.8182 24.8691 29.4904 24.281C32.5992 21.6763 34.4477 17.8953 34.4477 13.8623C34.5317 6.30027 28.1461 0.0826416 20.248 0.0826416ZM29.4064 15.5427C28.9863 15.5427 28.6502 15.2066 28.6502 14.7865C28.5662 12.6019 27.6419 10.3333 26.1295 8.65289C25.1213 7.5606 23.3568 6.21625 20.8361 6.21625C20.416 6.21625 19.9959 5.88016 19.9959 5.37603C19.9959 4.8719 20.332 4.53581 20.8361 4.53581C23.2728 4.53581 25.5414 5.54407 27.3058 7.47658C29.0703 9.40909 30.1626 12.0978 30.2466 14.7025C30.3306 15.1226 29.9105 15.5427 29.4064 15.5427ZM22.7686 38.7328H17.7273C17.2232 38.7328 16.8871 39.0689 16.8871 39.573C16.8871 40.0771 17.2232 40.4132 17.7273 40.4132H22.7686C23.2728 40.4132 23.6089 40.0771 23.6089 39.573C23.6089 39.0689 23.2728 38.7328 22.7686 38.7328Z" fill="#FFCF08"/>
</g>
<defs>
<clipPath id="clip0_5_108">
<rect width="40.3306" height="40.3306" fill="white" transform="translate(0.0826416 0.0826416)"/>
</clipPath>
</defs>
</svg>
