<svg width="61" height="61" viewBox="0 0 61 61" fill="none" xmlns="http://www.w3.org/2000/svg">
<circle cx="30.5" cy="30.5" r="30.5" fill="#6BE7E6"/>
<g clip-path="url(#clip0_5_114)">
<path d="M31.9712 39.391C31.9712 39.051 31.8361 38.7249 31.5957 38.4845C31.3553 38.244 31.0292 38.109 30.6891 38.109H15.7917C15.4517 38.109 15.1256 38.244 14.8851 38.4845C14.6447 38.7249 14.5096 39.051 14.5096 39.391C14.5096 39.731 14.6447 40.0571 14.8851 40.2976C15.1256 40.538 15.4517 40.6731 15.7917 40.6731H30.6891C31.0292 40.6731 31.3553 40.538 31.5957 40.2976C31.8361 40.0571 31.9712 39.731 31.9712 39.391ZM39.0802 9H24.7148C24.0772 9.00339 23.4667 9.25862 23.0165 9.71008C22.5662 10.1615 22.3126 10.7726 22.311 11.4102V37.4423H27.7276C28.1661 36.4905 28.9167 35.7171 29.8549 35.2503C30.7932 34.7835 31.8628 34.6514 32.8865 34.8759C33.9101 35.1003 34.8263 35.6678 35.4832 36.4844C36.1401 37.3009 36.4983 38.3174 36.4983 39.3654C36.4983 40.4133 36.1401 41.4298 35.4832 42.2464C34.8263 43.0629 33.9101 43.6304 32.8865 43.8549C31.8628 44.0793 30.7932 43.9472 29.8549 43.4804C28.9167 43.0137 28.1661 42.2403 27.7276 41.2884H22.311V50.5962C22.3127 51.2332 22.5665 51.8436 23.0169 52.294C23.4673 52.7445 24.0778 52.9983 24.7148 53H39.0802C39.7178 52.9983 40.3289 52.7447 40.7803 52.2945C41.2318 51.8442 41.487 51.2338 41.4904 50.5962V11.4102C41.4887 10.7715 41.2342 10.1595 40.7826 9.70781C40.331 9.25617 39.7189 9.00169 39.0802 9V9ZM27.1186 26.8013C26.8105 26.8013 26.5094 26.7099 26.2532 26.5387C25.997 26.3676 25.7974 26.1243 25.6795 25.8397C25.5616 25.555 25.5307 25.2418 25.5908 24.9397C25.6509 24.6375 25.7993 24.3599 26.0172 24.1421C26.235 23.9242 26.5126 23.7759 26.8147 23.7158C27.1169 23.6557 27.4301 23.6865 27.7147 23.8044C27.9994 23.9223 28.2427 24.122 28.4138 24.3782C28.585 24.6343 28.6763 24.9355 28.6763 25.2436C28.6763 25.6567 28.5122 26.0529 28.2201 26.345C27.9279 26.6372 27.5317 26.8013 27.1186 26.8013ZM27.1186 21.7372C26.8105 21.7372 26.5094 21.6458 26.2532 21.4747C25.997 21.3035 25.7974 21.0602 25.6795 20.7756C25.5616 20.491 25.5307 20.1778 25.5908 19.8756C25.6509 19.5734 25.7993 19.2959 26.0171 19.078C26.235 18.8602 26.5125 18.7118 26.8147 18.6517C27.1169 18.5916 27.4301 18.6225 27.7147 18.7404C27.9993 18.8582 28.2426 19.0579 28.4138 19.3141C28.585 19.5702 28.6763 19.8714 28.6763 20.1795C28.6763 20.384 28.636 20.5866 28.5577 20.7756C28.4795 20.9646 28.3647 21.1363 28.2201 21.2809C28.0754 21.4256 27.9037 21.5403 27.7147 21.6186C27.5257 21.6969 27.3232 21.7372 27.1186 21.7372ZM27.1186 17.1218C26.8105 17.1218 26.5094 17.0304 26.2532 16.8593C25.997 16.6881 25.7974 16.4448 25.6795 16.1602C25.5616 15.8755 25.5307 15.5623 25.5908 15.2602C25.6509 14.958 25.7993 14.6804 26.0172 14.4626C26.235 14.2448 26.5126 14.0964 26.8147 14.0363C27.1169 13.9762 27.4301 14.0071 27.7147 14.125C27.9994 14.2429 28.2427 14.4425 28.4138 14.6987C28.585 14.9549 28.6763 15.256 28.6763 15.5641C28.6763 15.9772 28.5122 16.3734 28.2201 16.6656C27.9279 16.9577 27.5317 17.1218 27.1186 17.1218ZM31.9007 26.8013C31.5926 26.8013 31.2915 26.7099 31.0353 26.5388C30.7791 26.3676 30.5795 26.1243 30.4616 25.8397C30.3437 25.5551 30.3128 25.2418 30.3729 24.9397C30.433 24.6375 30.5814 24.36 30.7992 24.1421C31.0171 23.9242 31.2946 23.7759 31.5968 23.7158C31.899 23.6557 32.2122 23.6865 32.4968 23.8044C32.7815 23.9223 33.0247 24.122 33.1959 24.3782C33.367 24.6343 33.4584 24.9355 33.4584 25.2436C33.4584 25.6567 33.2943 26.0529 33.0021 26.345C32.71 26.6371 32.3138 26.8013 31.9007 26.8013ZM31.9007 21.7372C31.5926 21.7372 31.2915 21.6458 31.0353 21.4747C30.7791 21.3035 30.5795 21.0602 30.4616 20.7756C30.3437 20.491 30.3128 20.1778 30.3729 19.8756C30.433 19.5734 30.5814 19.2959 30.7992 19.078C31.0171 18.8602 31.2946 18.7118 31.5968 18.6517C31.8989 18.5916 32.2121 18.6224 32.4968 18.7403C32.7814 18.8582 33.0247 19.0579 33.1959 19.3141C33.367 19.5702 33.4584 19.8714 33.4584 20.1795C33.4584 20.5926 33.2943 20.9888 33.0022 21.2809C32.71 21.5731 32.3139 21.7372 31.9007 21.7372ZM31.9007 17.1218C31.5926 17.1218 31.2915 17.0304 31.0353 16.8593C30.7791 16.6881 30.5795 16.4448 30.4616 16.1602C30.3437 15.8756 30.3128 15.5624 30.3729 15.2602C30.433 14.958 30.5814 14.6805 30.7992 14.4626C31.0171 14.2448 31.2946 14.0964 31.5968 14.0363C31.899 13.9762 32.2122 14.0071 32.4968 14.125C32.7815 14.2429 33.0247 14.4425 33.1959 14.6987C33.367 14.9549 33.4584 15.256 33.4584 15.5641C33.4584 15.9772 33.2943 16.3734 33.0021 16.6655C32.71 16.9577 32.3138 17.1218 31.9007 17.1218ZM36.6763 26.8013C36.3679 26.8025 36.0661 26.7123 35.8091 26.5419C35.5521 26.3715 35.3514 26.1287 35.2326 25.8441C35.1137 25.5596 35.0819 25.2462 35.1413 24.9436C35.2007 24.641 35.3485 24.3629 35.5661 24.1444C35.7837 23.9259 36.0612 23.7769 36.3636 23.7163C36.6659 23.6557 36.9795 23.6861 37.2645 23.8038C37.5495 23.9216 37.7931 24.1212 37.9646 24.3775C38.136 24.6338 38.2275 24.9352 38.2275 25.2436C38.2275 25.6556 38.0643 26.0508 37.7736 26.3428C37.4828 26.6347 37.0883 26.7996 36.6763 26.8013ZM36.6763 21.7372C36.3679 21.7385 36.0661 21.6482 35.8091 21.4778C35.5521 21.3074 35.3514 21.0646 35.2326 20.7801C35.1137 20.4955 35.0819 20.1821 35.1413 19.8796C35.2007 19.577 35.3485 19.2988 35.5661 19.0803C35.7837 18.8618 36.0612 18.7128 36.3636 18.6522C36.6659 18.5916 36.9794 18.622 37.2644 18.7397C37.5494 18.8575 37.7931 19.0571 37.9646 19.3134C38.136 19.5697 38.2275 19.8711 38.2275 20.1795C38.2275 20.5915 38.0643 20.9867 37.7736 21.2787C37.4828 21.5706 37.0883 21.7355 36.6763 21.7372ZM36.6763 17.1218C36.3679 17.1231 36.0661 17.0328 35.8091 16.8624C35.5521 16.692 35.3514 16.4492 35.2326 16.1647C35.1137 15.8801 35.0819 15.5667 35.1413 15.2641C35.2007 14.9616 35.3485 14.6834 35.5661 14.4649C35.7837 14.2464 36.0612 14.0974 36.3636 14.0368C36.6659 13.9762 36.9795 14.0066 37.2645 14.1244C37.5495 14.2421 37.7931 14.4417 37.9646 14.698C38.136 14.9543 38.2275 15.2558 38.2275 15.5641C38.2275 15.9761 38.0643 16.3714 37.7736 16.6633C37.4828 16.9552 37.0883 17.1201 36.6763 17.1218Z" fill="white"/>
</g>
<defs>
<clipPath id="clip0_5_114">
<rect width="44" height="44" fill="white" transform="translate(6 9)"/>
</clipPath>
</defs>
</svg>
