<svg width="44" height="44" viewBox="0 0 44 44" fill="none" xmlns="http://www.w3.org/2000/svg">
<g clip-path="url(#clip0_5_129)">
<path d="M25.9712 30.391C25.9712 30.051 25.8361 29.7249 25.5957 29.4845C25.3553 29.244 25.0292 29.109 24.6891 29.109H9.7917C9.45168 29.109 9.12558 29.244 8.88515 29.4845C8.64472 29.7249 8.50964 30.051 8.50964 30.391C8.50964 30.731 8.64472 31.0571 8.88515 31.2976C9.12558 31.538 9.45168 31.6731 9.7917 31.6731H24.6891C25.0292 31.6731 25.3553 31.538 25.5957 31.2976C25.8361 31.0571 25.9712 30.731 25.9712 30.391ZM33.0802 0H18.7148C18.0772 0.00338751 17.4667 0.258615 17.0165 0.710075C16.5662 1.16154 16.3126 1.77264 16.311 2.41025V28.4423H21.7276C22.1661 27.4905 22.9167 26.7171 23.8549 26.2503C24.7932 25.7835 25.8628 25.6514 26.8865 25.8759C27.9101 26.1003 28.8263 26.6678 29.4832 27.4844C30.1401 28.3009 30.4983 29.3174 30.4983 30.3654C30.4983 31.4133 30.1401 32.4298 29.4832 33.2464C28.8263 34.0629 27.9101 34.6304 26.8865 34.8549C25.8628 35.0793 24.7932 34.9472 23.8549 34.4804C22.9167 34.0137 22.1661 33.2403 21.7276 32.2884H16.311V41.5962C16.3127 42.2332 16.5665 42.8436 17.0169 43.294C17.4673 43.7445 18.0778 43.9983 18.7148 44H33.0802C33.7178 43.9983 34.3289 43.7447 34.7803 43.2945C35.2318 42.8442 35.487 42.2338 35.4904 41.5962V2.41025C35.4887 1.77153 35.2342 1.15945 34.7826 0.707811C34.331 0.256168 33.7189 0.0016899 33.0802 0V0ZM21.1186 17.8013C20.8105 17.8013 20.5094 17.7099 20.2532 17.5387C19.997 17.3676 19.7974 17.1243 19.6795 16.8397C19.5616 16.555 19.5307 16.2418 19.5908 15.9397C19.6509 15.6375 19.7993 15.3599 20.0172 15.1421C20.235 14.9242 20.5126 14.7759 20.8147 14.7158C21.1169 14.6557 21.4301 14.6865 21.7147 14.8044C21.9994 14.9223 22.2427 15.122 22.4138 15.3782C22.585 15.6343 22.6763 15.9355 22.6763 16.2436C22.6763 16.6567 22.5122 17.0529 22.2201 17.345C21.9279 17.6372 21.5317 17.8013 21.1186 17.8013ZM21.1186 12.7372C20.8105 12.7372 20.5094 12.6458 20.2532 12.4747C19.997 12.3035 19.7974 12.0602 19.6795 11.7756C19.5616 11.491 19.5307 11.1778 19.5908 10.8756C19.6509 10.5734 19.7993 10.2959 20.0171 10.078C20.235 9.86017 20.5125 9.71181 20.8147 9.65171C21.1169 9.5916 21.4301 9.62245 21.7147 9.74035C21.9993 9.85825 22.2426 10.0579 22.4138 10.3141C22.585 10.5702 22.6763 10.8714 22.6763 11.1795C22.6763 11.384 22.636 11.5866 22.5577 11.7756C22.4795 11.9646 22.3647 12.1363 22.2201 12.2809C22.0754 12.4256 21.9037 12.5403 21.7147 12.6186C21.5257 12.6969 21.3232 12.7372 21.1186 12.7372ZM21.1186 8.12178C20.8105 8.12178 20.5094 8.03042 20.2532 7.85926C19.997 7.68809 19.7974 7.44481 19.6795 7.16018C19.5616 6.87554 19.5307 6.56234 19.5908 6.26017C19.6509 5.958 19.7993 5.68045 20.0172 5.4626C20.235 5.24475 20.5126 5.0964 20.8147 5.0363C21.1169 4.9762 21.4301 5.00705 21.7147 5.12496C21.9994 5.24287 22.2427 5.44253 22.4138 5.6987C22.585 5.95486 22.6763 6.25603 22.6763 6.56412C22.6763 6.97724 22.5122 7.37344 22.2201 7.66556C21.9279 7.95767 21.5317 8.12178 21.1186 8.12178ZM25.9007 17.8013C25.5926 17.8013 25.2915 17.7099 25.0353 17.5388C24.7791 17.3676 24.5795 17.1243 24.4616 16.8397C24.3437 16.5551 24.3128 16.2418 24.3729 15.9397C24.433 15.6375 24.5814 15.36 24.7992 15.1421C25.0171 14.9242 25.2946 14.7759 25.5968 14.7158C25.899 14.6557 26.2122 14.6865 26.4968 14.8044C26.7815 14.9223 27.0247 15.122 27.1959 15.3782C27.367 15.6343 27.4584 15.9355 27.4584 16.2436C27.4584 16.6567 27.2943 17.0529 27.0021 17.345C26.71 17.6371 26.3138 17.8013 25.9007 17.8013ZM25.9007 12.7372C25.5926 12.7372 25.2915 12.6458 25.0353 12.4747C24.7791 12.3035 24.5795 12.0602 24.4616 11.7756C24.3437 11.491 24.3128 11.1778 24.3729 10.8756C24.433 10.5734 24.5814 10.2959 24.7992 10.078C25.0171 9.86018 25.2946 9.71182 25.5968 9.65171C25.8989 9.5916 26.2121 9.62245 26.4968 9.74035C26.7814 9.85824 27.0247 10.0579 27.1959 10.3141C27.367 10.5702 27.4584 10.8714 27.4584 11.1795C27.4584 11.5926 27.2943 11.9888 27.0022 12.2809C26.71 12.5731 26.3139 12.7372 25.9007 12.7372ZM25.9007 8.12178C25.5926 8.12179 25.2915 8.03044 25.0353 7.85928C24.7791 7.68812 24.5795 7.44484 24.4616 7.1602C24.3437 6.87557 24.3128 6.56236 24.3729 6.2602C24.433 5.95803 24.5814 5.68047 24.7992 5.46262C25.0171 5.24476 25.2946 5.09641 25.5968 5.0363C25.899 4.9762 26.2122 5.00705 26.4968 5.12496C26.7815 5.24286 27.0247 5.44252 27.1959 5.69869C27.367 5.95486 27.4584 6.25603 27.4584 6.56412C27.4584 6.97723 27.2943 7.37343 27.0021 7.66554C26.71 7.95766 26.3138 8.12177 25.9007 8.12178ZM30.6763 17.8013C30.3679 17.8025 30.0661 17.7123 29.8091 17.5419C29.5521 17.3715 29.3514 17.1287 29.2326 16.8441C29.1137 16.5596 29.0819 16.2462 29.1413 15.9436C29.2007 15.641 29.3485 15.3629 29.5661 15.1444C29.7837 14.9259 30.0612 14.7769 30.3636 14.7163C30.6659 14.6557 30.9795 14.6861 31.2645 14.8038C31.5495 14.9216 31.7931 15.1212 31.9646 15.3775C32.136 15.6338 32.2275 15.9352 32.2275 16.2436C32.2275 16.6556 32.0643 17.0508 31.7736 17.3428C31.4828 17.6347 31.0883 17.7996 30.6763 17.8013ZM30.6763 12.7372C30.3679 12.7385 30.0661 12.6482 29.8091 12.4778C29.5521 12.3074 29.3514 12.0646 29.2326 11.7801C29.1137 11.4955 29.0819 11.1821 29.1413 10.8796C29.2007 10.577 29.3485 10.2988 29.5661 10.0803C29.7837 9.86182 30.0612 9.71282 30.3636 9.6522C30.6659 9.59157 30.9794 9.62204 31.2644 9.73974C31.5494 9.85745 31.7931 10.0571 31.9646 10.3134C32.136 10.5697 32.2275 10.8711 32.2275 11.1795C32.2275 11.5915 32.0643 11.9867 31.7736 12.2787C31.4828 12.5706 31.0883 12.7355 30.6763 12.7372ZM30.6763 8.12178C30.3679 8.12306 30.0661 8.03278 29.8091 7.8624C29.5521 7.69201 29.3514 7.44918 29.2326 7.16465C29.1137 6.88013 29.0819 6.56673 29.1413 6.26414C29.2007 5.96155 29.3485 5.68339 29.5661 5.4649C29.7837 5.24641 30.0612 5.09741 30.3636 5.03679C30.6659 4.97616 30.9795 5.00664 31.2645 5.12435C31.5495 5.24207 31.7931 5.44172 31.9646 5.69803C32.136 5.95434 32.2275 6.25576 32.2275 6.56412C32.2275 6.97613 32.0643 7.37135 31.7736 7.66328C31.4828 7.95522 31.0883 8.12008 30.6763 8.12178Z" fill="#6BE7E6"/>
</g>
<defs>
<clipPath id="clip0_5_129">
<rect width="44" height="44" fill="white"/>
</clipPath>
</defs>
</svg>
