<svg width="60" height="60" viewBox="0 0 60 60" fill="none" xmlns="http://www.w3.org/2000/svg">
<path d="M40 43.125C40.25 42.875 40.75 42.625 41.25 42.625C43.75 42.625 44.5 45.375 47.25 43.375C47 41.875 45.75 38.875 43.5 34.875C41.5 38.625 40.25 41.625 40 43.125ZM20.5 35.875L36 20.375C36.5 19.875 37.25 19.875 37.75 20.375C38.25 20.875 38.25 21.625 37.75 22.125L22.25 37.625C22.5 38.125 22.5 38.625 22.5 39.125C22.5 41.125 20.75 42.875 18.75 42.875C16.75 42.875 15 41.125 15 39.125C15 37.125 16.75 35.375 18.75 35.375C19.5 35.375 20 35.625 20.5 35.875ZM19.75 33.125H18.75C15.25 33.125 12.5 35.875 12.5 39.125C12.5 42.625 15.25 45.125 18.75 45.125C22.25 45.125 25 42.625 25 39.125V38.625L44.75 18.875C46.25 17.375 46.25 15.125 44.75 13.625C43.25 12.125 41 12.125 39.5 13.625L19.75 33.125ZM18.75 30.625L37.5 11.875C40 9.375 44 9.375 46.25 11.875C48.5 14.375 48.75 18.375 46.25 20.625L27.5 39.375C27.25 44.125 23.5 47.625 18.75 47.625C14 47.625 10 43.875 10 39.125C10 34.375 14 30.625 18.75 30.625ZM43.75 50.125C40.25 50.125 37.5 47.375 37.5 43.875C37.5 41.625 39.5 37.125 43.75 30.625C48 37.125 50 41.625 50 43.875C50 47.375 47.25 50.125 43.75 50.125Z" fill="#1DB0EF"/>
</svg>
