<svg width="28" height="28" viewBox="0 0 28 28" fill="none" xmlns="http://www.w3.org/2000/svg">
<path d="M14.9385 14.1172V1.81252C14.9385 1.29478 14.5143 0.875046 13.9966 0.875046C13.4788 0.875046 13.0546 1.29478 13.0546 1.81252V14.119C11.446 14.5365 10.2477 16.0038 10.2477 17.7499C10.2477 19.4987 11.4436 20.9678 13.0629 21.3828C13.0577 21.4217 13.055 21.4609 13.0546 21.5001V26.1875C13.0546 26.7052 13.4788 27.125 13.9966 27.125C14.5143 27.125 14.9385 26.7052 14.9385 26.1875V21.5001C14.9377 21.4615 14.9346 21.4229 14.9292 21.3847C16.5519 20.9719 17.7533 19.5008 17.7533 17.7501C17.7536 16.0014 16.5577 14.5324 14.9385 14.1172ZM15.3258 19.0757C15.0191 19.3825 14.6155 19.5734 14.1838 19.6159C13.752 19.6584 13.3189 19.5499 12.9582 19.3089C12.5976 19.0679 12.3316 18.7093 12.2056 18.2942C12.0797 17.8791 12.1016 17.4331 12.2676 17.0323C12.4336 16.6316 12.7334 16.3007 13.116 16.0962C13.4986 15.8917 13.9402 15.8262 14.3657 15.9108C14.7912 15.9955 15.1741 16.225 15.4493 16.5603C15.7246 16.8956 15.875 17.316 15.875 17.7498C15.8757 17.9962 15.8275 18.2402 15.7332 18.4678C15.639 18.6954 15.5005 18.9021 15.3258 19.0758V19.0757ZM5.55308 4.7423C5.55836 4.70342 5.56123 4.66426 5.56165 4.62503V1.81252C5.56165 1.56411 5.46297 1.32587 5.28732 1.15022C5.11167 0.974572 4.87344 0.875892 4.62503 0.875892C4.37662 0.875892 4.13839 0.974572 3.96273 1.15022C3.78708 1.32587 3.6884 1.56411 3.6884 1.81252V4.62503C3.68767 4.66476 3.68944 4.70449 3.6937 4.74399C2.07445 5.15885 0.876099 6.62782 0.876099 8.37682C0.876099 10.1258 2.07466 11.5941 3.69391 12.0095C3.68977 12.0478 3.68796 12.0864 3.68851 12.1249V26.1875C3.68851 26.3105 3.71274 26.4323 3.75981 26.5459C3.80688 26.6595 3.87587 26.7628 3.96284 26.8498C4.04981 26.9367 4.15307 27.0057 4.2667 27.0528C4.38034 27.0999 4.50213 27.1241 4.62513 27.1241C4.74813 27.1241 4.86993 27.0999 4.98356 27.0528C5.0972 27.0057 5.20045 26.9367 5.28743 26.8498C5.3744 26.7628 5.44339 26.6595 5.49046 26.5459C5.53753 26.4323 5.56176 26.3105 5.56176 26.1875V12.125C5.56133 12.087 5.55861 12.049 5.55361 12.0112C7.17624 11.5985 8.37639 10.1274 8.37639 8.37682C8.37639 6.62623 7.17592 5.15483 5.55308 4.7423ZM5.9508 9.7027C5.64406 10.0094 5.24045 10.2003 4.80874 10.2429C4.37703 10.2854 3.94392 10.1769 3.58323 9.93592C3.22253 9.69492 2.95656 9.33631 2.83062 8.92119C2.70469 8.50607 2.72659 8.06012 2.89259 7.65934C3.05859 7.25856 3.35842 6.92773 3.741 6.72323C4.12357 6.51873 4.56522 6.45321 4.99069 6.53783C5.41616 6.62246 5.79912 6.85198 6.07433 7.18731C6.34953 7.52264 6.49996 7.94302 6.49997 8.37682C6.50065 8.62316 6.45247 8.86718 6.3582 9.09477C6.26394 9.32236 6.12546 9.52899 5.9508 9.7027ZM27.1249 8.37682C27.1249 6.6256 25.9224 5.15483 24.2992 4.7423C24.3033 4.70335 24.305 4.66419 24.3043 4.62503V1.81252C24.3043 1.56411 24.2056 1.32587 24.03 1.15022C23.8543 0.974572 23.6161 0.875892 23.3677 0.875892C23.1193 0.875892 22.881 0.974572 22.7054 1.15022C22.5297 1.32587 22.431 1.56411 22.431 1.81252V4.62503C22.4315 4.66483 22.4344 4.70456 22.4398 4.74399C20.8206 5.15885 19.6239 6.62782 19.6239 8.37682C19.6239 10.1258 20.8198 11.5947 22.4391 12.0096C22.4339 12.0485 22.4311 12.0876 22.4308 12.1268V26.1875C22.4308 26.4359 22.5295 26.6741 22.7052 26.8498C22.8808 27.0254 23.119 27.1241 23.3674 27.1241C23.6159 27.1241 23.8541 27.0254 24.0297 26.8498C24.2054 26.6741 24.3041 26.4359 24.3041 26.1875V12.1268C24.3048 12.0883 24.3032 12.0497 24.2992 12.0113C25.9225 11.5987 27.1249 10.1279 27.1249 8.37682ZM24.7007 9.70259C24.394 10.0093 23.9904 10.2001 23.5587 10.2426C23.127 10.2851 22.6939 10.1766 22.3333 9.93556C21.9726 9.69454 21.7067 9.33592 21.5808 8.92081C21.4549 8.5057 21.4769 8.05979 21.6429 7.65905C21.8089 7.2583 22.1088 6.92753 22.4914 6.72307C22.8739 6.51862 23.3155 6.45315 23.741 6.5378C24.1664 6.62246 24.5493 6.85201 24.8245 7.18734C25.0997 7.52268 25.25 7.94304 25.25 8.37682C25.2507 8.62314 25.2025 8.86715 25.1082 9.09472C25.0139 9.32229 24.8754 9.5289 24.7007 9.70259Z" fill="white"/>
</svg>
