<svg width="32" height="32" viewBox="0 0 32 32" fill="none" xmlns="http://www.w3.org/2000/svg">
    <path d="M12.3333 23.6133C12.3333 23.7342 12.3095 23.8538 12.2633 23.9654C12.2171 24.077 12.1493 24.1785 12.0639 24.2639C11.9784 24.3493 11.877 24.4171 11.7654 24.4633C11.6538 24.5096 11.5341 24.5333 11.4133 24.5333C11.2925 24.5333 11.1729 24.5096 11.0613 24.4633C10.9496 24.4171 10.8482 24.3493 10.7628 24.2639C10.6774 24.1785 10.6096 24.077 10.5634 23.9654C10.5171 23.8538 10.4933 23.7342 10.4933 23.6133V18.5867C10.4974 17.8011 10.8029 17.047 11.3467 16.48C11.6137 16.2058 11.933 15.9878 12.2857 15.839C12.6383 15.6901 13.0172 15.6134 13.4 15.6133H18.6667C19.0492 15.6149 19.4277 15.6923 19.7801 15.841C20.1326 15.9898 20.452 16.207 20.72 16.48C21.2601 17.0483 21.5609 17.8027 21.56 18.5867V26.5867C21.564 27.4954 21.215 28.3702 20.5867 29.0267C20.2787 29.3455 19.9101 29.5993 19.5025 29.7734C19.0949 29.9474 18.6565 30.0381 18.2133 30.04H8.88C8.35434 30.0403 7.83407 29.9341 7.35056 29.7278C6.86704 29.5216 6.4303 29.2196 6.06666 28.84C5.31801 28.0688 4.90154 27.0348 4.90666 25.96V16.2133H1.58666C1.46472 16.2134 1.34398 16.1891 1.23149 16.1421C1.11899 16.095 1.01697 16.026 0.931364 15.9392C0.845757 15.8523 0.778271 15.7493 0.732828 15.6362C0.687386 15.523 0.664894 15.4019 0.666662 15.28C0.665625 15.133 0.698821 14.9879 0.76362 14.8559C0.828419 14.724 0.923042 14.609 1.03999 14.52L15.4933 2.21335C15.659 2.06712 15.8724 1.98642 16.0933 1.98642C16.3143 1.98642 16.5277 2.06712 16.6933 2.21335L31 14.5333C31.1478 14.6553 31.2545 14.8197 31.3056 15.0044C31.3568 15.189 31.3498 15.3849 31.2857 15.5655C31.2217 15.7461 31.1036 15.9025 30.9475 16.0137C30.7914 16.1248 30.6049 16.1852 30.4133 16.1867H27.16V27.4667C27.1746 27.8106 27.1182 28.1538 26.9943 28.475C26.8704 28.7961 26.6817 29.0883 26.44 29.3333C26.217 29.5645 25.9498 29.7484 25.6544 29.8744C25.3589 30.0004 25.0412 30.0658 24.72 30.0667H24.48C24.358 30.065 24.2376 30.039 24.1258 29.9903C24.0139 29.9417 23.9129 29.8712 23.8285 29.7831C23.7441 29.695 23.6781 29.591 23.6343 29.4772C23.5905 29.3634 23.5698 29.2419 23.5733 29.12C23.5716 28.9992 23.5936 28.8792 23.6382 28.7669C23.6828 28.6546 23.7491 28.5522 23.8333 28.4655C23.9175 28.3789 24.018 28.3096 24.1289 28.2618C24.2399 28.2139 24.3592 28.1884 24.48 28.1867H24.72C24.8002 28.1871 24.8796 28.1708 24.9531 28.1386C25.0266 28.1065 25.0926 28.0592 25.1467 28C25.2611 27.8815 25.3276 27.7247 25.3333 27.56V15.28C25.3298 15.1581 25.3505 15.0367 25.3943 14.9228C25.4381 14.809 25.5041 14.705 25.5885 14.6169C25.6729 14.5288 25.7739 14.4584 25.8858 14.4097C25.9976 14.361 26.118 14.3351 26.24 14.3333H27.9067L16.08 4.16001L4.08 14.3333H5.76C5.88196 14.3351 6.00237 14.361 6.11421 14.4097C6.22606 14.4584 6.3271 14.5288 6.41148 14.6169C6.49585 14.705 6.56186 14.809 6.60567 14.9228C6.64948 15.0367 6.67021 15.1581 6.66666 15.28V25.9467C6.66581 26.234 6.72194 26.5186 6.83179 26.7841C6.94164 27.0496 7.10305 27.2906 7.30666 27.4933C7.50079 27.6982 7.73433 27.8617 7.99325 27.9739C8.25217 28.0862 8.53112 28.145 8.81333 28.1467H18.1467C18.3487 28.1446 18.5482 28.1022 18.7336 28.0221C18.9191 27.9419 19.0867 27.8257 19.2267 27.68C19.3719 27.5349 19.4868 27.3623 19.5646 27.1723C19.6425 26.9823 19.6817 26.7787 19.68 26.5733V18.5733C19.6808 18.4296 19.6529 18.2872 19.598 18.1544C19.543 18.0216 19.4621 17.9011 19.36 17.8C19.2643 17.6981 19.1486 17.617 19.0201 17.5619C18.8916 17.5068 18.7531 17.479 18.6133 17.48H13.4C13.2584 17.4802 13.1183 17.5087 12.9878 17.5636C12.8573 17.6185 12.7391 17.6989 12.64 17.8C12.4423 18.0089 12.3325 18.2858 12.3333 18.5733V23.6V23.6133Z" fill="white"/>
</svg>
