<svg width="30" height="30" viewBox="0 0 30 30" fill="none" xmlns="http://www.w3.org/2000/svg">
<path d="M22.1789 17.6167L22.1788 17.6167L22.1708 17.6237C21.5638 18.1548 21.25 18.8538 21.25 19.625V20.5C21.25 21.3691 20.579 22.0625 19.75 22.0625H11.4375C10.661 22.0625 9.9375 21.3588 9.9375 20.5V19.625C9.9375 18.8824 9.64278 18.0982 8.99908 17.6087C6.79991 15.7616 5.5 13.0905 5.5 10.25C5.5 4.91659 10.0104 0.5 15.625 0.5C21.2409 0.5 25.7467 4.91656 25.6875 10.2444H25.6875V10.25C25.6875 13.0946 24.3838 15.7693 22.1789 17.6167ZM12.375 26.875C12.375 26.8011 12.3974 26.7784 12.4004 26.7754C12.4034 26.7724 12.4261 26.75 12.5 26.75H18.75C18.8239 26.75 18.8466 26.7724 18.8496 26.7754C18.8526 26.7784 18.875 26.8011 18.875 26.875C18.875 26.9489 18.8526 26.9716 18.8496 26.9746C18.8466 26.9776 18.8239 27 18.75 27H12.5C12.4261 27 12.4034 26.9776 12.4004 26.9746C12.3974 26.9716 12.375 26.9489 12.375 26.875ZM11.25 24.25H20C20.0739 24.25 20.0966 24.2724 20.0996 24.2754C20.1026 24.2784 20.125 24.3011 20.125 24.375C20.125 24.4489 20.1026 24.4716 20.0996 24.4746C20.0966 24.4776 20.0739 24.5 20 24.5H11.25C11.1761 24.5 11.1534 24.4776 11.1504 24.4746C11.1474 24.4716 11.125 24.4489 11.125 24.375C11.125 24.3011 11.1474 24.2784 11.1504 24.2754C11.1534 24.2724 11.1761 24.25 11.25 24.25ZM19.6305 6.71185C20.6758 7.8745 21.3152 9.44643 21.3751 10.9487C21.381 11.5322 21.8526 12 22.4375 12C22.7622 12 23.0599 11.8659 23.2676 11.6582C23.4649 11.461 23.6105 11.1618 23.5611 10.8247C23.4864 8.77867 22.6293 6.67982 21.2442 5.16287C19.8415 3.62653 18.022 2.8125 16.0625 2.8125C15.7614 2.8125 15.4716 2.91506 15.2558 3.13082C15.0401 3.34658 14.9375 3.63637 14.9375 3.9375C14.9375 4.62057 15.5069 5.0625 16.0625 5.0625C17.7439 5.0625 18.9323 5.95629 19.6305 6.71185ZM13.625 29.375C13.625 29.3011 13.6474 29.2784 13.6504 29.2754C13.6534 29.2724 13.6761 29.25 13.75 29.25H17.5C17.5739 29.25 17.5966 29.2724 17.5996 29.2754C17.6026 29.2784 17.625 29.3011 17.625 29.375C17.625 29.4489 17.6026 29.4716 17.5996 29.4746C17.5966 29.4776 17.5739 29.5 17.5 29.5H13.75C13.6761 29.5 13.6534 29.4776 13.6504 29.4746C13.6474 29.4716 13.625 29.4489 13.625 29.375Z" stroke="white"/>
</svg>
