<svg width="25" height="27" viewBox="0 0 25 27" fill="none" xmlns="http://www.w3.org/2000/svg">
<path d="M13.7046 0.772728C13.2826 0.772728 12.878 0.940341 12.5796 1.23869C12.2813 1.53705 12.1137 1.9417 12.1137 2.36364V16.6818H2.17049C1.64307 16.6818 1.13725 16.8913 0.764309 17.2643C0.391367 17.6372 0.18185 18.143 0.18185 18.6705C0.18185 19.1979 0.391367 19.7037 0.764309 20.0766C1.13725 20.4496 1.64307 20.6591 2.17049 20.6591H12.1137V24.6364C12.1137 25.0583 12.2813 25.463 12.5796 25.7613C12.878 26.0597 13.2826 26.2273 13.7046 26.2273H23.25C23.672 26.2273 24.0766 26.0597 24.375 25.7613C24.6733 25.463 24.8409 25.0583 24.8409 24.6364V2.36364C24.8409 1.9417 24.6733 1.53705 24.375 1.23869C24.0766 0.940341 23.672 0.772728 23.25 0.772728H13.7046ZM14.5 2.36364H22.4546C22.6655 2.36364 22.8679 2.44744 23.017 2.59662C23.1662 2.7458 23.25 2.94812 23.25 3.15909V23.8409C23.25 24.0519 23.1662 24.2542 23.017 24.4034C22.8679 24.5526 22.6655 24.6364 22.4546 24.6364H14.5C14.2891 24.6364 14.0867 24.5526 13.9376 24.4034C13.7884 24.2542 13.7046 24.0519 13.7046 23.8409V20.6591H15.103C15.5296 21.2976 16.1503 21.782 16.8733 22.0407C17.5964 22.2995 18.3835 22.3188 19.1184 22.0959C19.8532 21.873 20.4969 21.4196 20.9544 20.8028C21.4119 20.186 21.6589 19.4384 21.6589 18.6705C21.6589 17.9025 21.4119 17.1549 20.9544 16.5381C20.4969 15.9213 19.8532 15.468 19.1184 15.245C18.3835 15.0221 17.5964 15.0414 16.8733 15.3002C16.1503 15.5589 15.5296 16.0433 15.103 16.6818H13.7046V3.15909C13.7046 2.94812 13.7884 2.7458 13.9376 2.59662C14.0867 2.44744 14.2891 2.36364 14.5 2.36364ZM18.0796 16.6818C18.4558 16.6819 18.8244 16.7887 19.1423 16.9899C19.4603 17.191 19.7147 17.4783 19.8759 17.8182C20.0372 18.1582 20.0987 18.5369 20.0533 18.9104C20.0079 19.2839 19.8574 19.6369 19.6194 19.9283C19.3814 20.2198 19.0656 20.4377 18.7087 20.5568C18.3518 20.6759 17.9684 20.6913 17.6031 20.6013C17.2378 20.5112 16.9055 20.3193 16.6449 20.048C16.3843 19.7766 16.206 19.4368 16.1307 19.0682H2.17049C2.11825 19.0682 2.06652 19.0579 2.01825 19.0379C1.96998 19.018 1.92612 18.9887 1.88918 18.9517C1.85223 18.9148 1.82292 18.8709 1.80293 18.8227C1.78293 18.7744 1.77264 18.7227 1.77264 18.6705C1.77264 18.6182 1.78293 18.5665 1.80293 18.5182C1.82292 18.47 1.85223 18.4261 1.88918 18.3892C1.92612 18.3522 1.96998 18.323 2.01825 18.303C2.06652 18.283 2.11825 18.2727 2.17049 18.2727H16.1307C16.2224 17.8235 16.4665 17.4198 16.8216 17.1299C17.1767 16.84 17.6211 16.6817 18.0796 16.6818ZM20.8637 8.72727C20.6527 8.72727 20.4504 8.81108 20.3012 8.96026C20.152 9.10943 20.0682 9.31176 20.0682 9.52273C20.0682 9.73369 20.152 9.93602 20.3012 10.0852C20.4504 10.2344 20.6527 10.3182 20.8637 10.3182C21.0746 10.3182 21.277 10.2344 21.4261 10.0852C21.5753 9.93602 21.6591 9.73369 21.6591 9.52273C21.6591 9.31176 21.5753 9.10943 21.4261 8.96026C21.277 8.81108 21.0746 8.72727 20.8637 8.72727ZM18.4773 8.72727C18.2663 8.72727 18.064 8.81108 17.9148 8.96026C17.7657 9.10943 17.6819 9.31176 17.6819 9.52273C17.6819 9.73369 17.7657 9.93602 17.9148 10.0852C18.064 10.2344 18.2663 10.3182 18.4773 10.3182C18.6883 10.3182 18.8906 10.2344 19.0398 10.0852C19.189 9.93602 19.2728 9.73369 19.2728 9.52273C19.2728 9.31176 19.189 9.10943 19.0398 8.96026C18.8906 8.81108 18.6883 8.72727 18.4773 8.72727ZM16.0909 8.72727C15.88 8.72727 15.6776 8.81108 15.5285 8.96026C15.3793 9.10943 15.2955 9.31176 15.2955 9.52273C15.2955 9.73369 15.3793 9.93602 15.5285 10.0852C15.6776 10.2344 15.88 10.3182 16.0909 10.3182C16.3019 10.3182 16.5042 10.2344 16.6534 10.0852C16.8026 9.93602 16.8864 9.73369 16.8864 9.52273C16.8864 9.31176 16.8026 9.10943 16.6534 8.96026C16.5042 8.81108 16.3019 8.72727 16.0909 8.72727ZM20.8637 6.34091C20.6527 6.34091 20.4504 6.42472 20.3012 6.57389C20.152 6.72307 20.0682 6.9254 20.0682 7.13636C20.0682 7.34733 20.152 7.54966 20.3012 7.69884C20.4504 7.84801 20.6527 7.93182 20.8637 7.93182C21.0746 7.93182 21.277 7.84801 21.4261 7.69884C21.5753 7.54966 21.6591 7.34733 21.6591 7.13636C21.6591 6.9254 21.5753 6.72307 21.4261 6.57389C21.277 6.42472 21.0746 6.34091 20.8637 6.34091ZM18.4773 6.34091C18.2663 6.34091 18.064 6.42472 17.9148 6.57389C17.7657 6.72307 17.6819 6.9254 17.6819 7.13636C17.6819 7.34733 17.7657 7.54966 17.9148 7.69884C18.064 7.84801 18.2663 7.93182 18.4773 7.93182C18.6883 7.93182 18.8906 7.84801 19.0398 7.69884C19.189 7.54966 19.2728 7.34733 19.2728 7.13636C19.2728 6.9254 19.189 6.72307 19.0398 6.57389C18.8906 6.42472 18.6883 6.34091 18.4773 6.34091ZM16.0909 6.34091C15.88 6.34091 15.6776 6.42472 15.5285 6.57389C15.3793 6.72307 15.2955 6.9254 15.2955 7.13636C15.2955 7.34733 15.3793 7.54966 15.5285 7.69884C15.6776 7.84801 15.88 7.93182 16.0909 7.93182C16.3019 7.93182 16.5042 7.84801 16.6534 7.69884C16.8026 7.54966 16.8864 7.34733 16.8864 7.13636C16.8864 6.9254 16.8026 6.72307 16.6534 6.57389C16.5042 6.42472 16.3019 6.34091 16.0909 6.34091ZM20.8637 3.95455C20.6527 3.95455 20.4504 4.03835 20.3012 4.18753C20.152 4.33671 20.0682 4.53903 20.0682 4.75C20.0682 4.96097 20.152 5.1633 20.3012 5.31247C20.4504 5.46165 20.6527 5.54546 20.8637 5.54546C21.0746 5.54546 21.277 5.46165 21.4261 5.31247C21.5753 5.1633 21.6591 4.96097 21.6591 4.75C21.6591 4.53903 21.5753 4.33671 21.4261 4.18753C21.277 4.03835 21.0746 3.95455 20.8637 3.95455ZM18.4773 3.95455C18.2663 3.95455 18.064 4.03835 17.9148 4.18753C17.7657 4.33671 17.6819 4.53903 17.6819 4.75C17.6819 4.96097 17.7657 5.1633 17.9148 5.31247C18.064 5.46165 18.2663 5.54546 18.4773 5.54546C18.6883 5.54546 18.8906 5.46165 19.0398 5.31247C19.189 5.1633 19.2728 4.96097 19.2728 4.75C19.2728 4.53903 19.189 4.33671 19.0398 4.18753C18.8906 4.03835 18.6883 3.95455 18.4773 3.95455ZM16.0909 3.95455C15.88 3.95455 15.6776 4.03835 15.5285 4.18753C15.3793 4.33671 15.2955 4.53903 15.2955 4.75C15.2955 4.96097 15.3793 5.1633 15.5285 5.31247C15.6776 5.46165 15.88 5.54546 16.0909 5.54546C16.3019 5.54546 16.5042 5.46165 16.6534 5.31247C16.8026 5.1633 16.8864 4.96097 16.8864 4.75C16.8864 4.53903 16.8026 4.33671 16.6534 4.18753C16.5042 4.03835 16.3019 3.95455 16.0909 3.95455Z" fill="white"/>
</svg>
