<svg viewBox="0 0 1024 1024" fill="none" xmlns="http://www.w3.org/2000/svg" width="200" height="200">
    <path d="M360.918033 1024c-57.555035 0-104.718189-36.771272-114.310695-89.530055l-65.54879 7.993755c-3.996877 0.799375-8.79313 0.799375-13.589383 0.799376-55.956284 0-97.52381-39.968774-97.52381-91.928181V194.248244c0-52.758782 42.366901-92.727557 98.323185-92.727557 3.996877 0 8.79313 0 12.790008 0.799375l65.54879 7.19438C256.999219 57.555035 304.162373 20.783763 361.717408 20.783763c5.595628 0 10.391881 0 15.188135 0.799375l476.42779 51.959407c55.156909 6.395004 99.921936 58.354411 99.122561 115.909446v661.083528c0 58.354411-44.765027 110.313817-99.921936 116.708821L376.106167 1023.200625c-4.796253 0-10.391881 0.799375-15.188134 0.799375z m-11.990633-959.250585c-20.783763 0-43.965652 11.191257-43.965651 35.971896V943.263076c0 23.981265 22.382514 35.172521 42.3669 35.172521 2.398126 0 5.595628 0 7.993755-0.799375l512.399688-59.953162c18.385636-2.398126 34.373146-22.382514 34.373146-43.166276v-711.444184c0-19.984387-15.98751-39.968774-33.57377-42.366901l-512.399688-55.956284c-2.398126 0.799375-4.796253 0-7.19438 0zM143.4879 151.081967c-11.191257 0-29.576893 3.996877-29.576893 16.786885v708.246683c0 15.98751 25.580016 15.98751 28.777518 15.987509h6.395003l98.323186-8.79313V159.875098l-97.52381-8.793131h-6.395004z" fill=""/>
    <path d="M395.291179 585.142857c-6.395004 0-11.990632-5.595628-11.990633-11.990632V470.832162c0-6.395004 5.595628-11.990632 11.990633-11.990632h7.993755c6.395004 0 11.990632 5.595628 11.990632 11.990632v102.320063c0 6.395004-5.595628 11.990632-11.990632 11.990632h-7.993755z"/>
    <path d="M403.284934 584.343482h-7.993755c-6.395004 0-11.191257-4.796253-11.191257-11.191257V470.832162c0-6.395004 4.796253-11.191257 11.191257-11.191256h7.993755c6.395004 0 11.191257 4.796253 11.191256 11.191256v102.320063c0.799375 6.395004-4.796253 11.191257-11.191256 11.191257z"/>
</svg>