<svg width="25" height="25" viewBox="0 0 25 25" fill="none" xmlns="http://www.w3.org/2000/svg">
<path d="M18.6667 20.5167C18.8209 20.3625 19.1292 20.2083 19.4375 20.2083C20.9792 20.2083 21.4417 21.9042 23.1375 20.6708C22.9834 19.7458 22.2125 17.8958 20.825 15.4292C19.5917 17.7417 18.8209 19.5917 18.6667 20.5167ZM6.64169 16.0458L16.2 6.4875C16.5084 6.17917 16.9709 6.17917 17.2792 6.4875C17.5875 6.79583 17.5875 7.25833 17.2792 7.56667L7.72085 17.125C7.87502 17.4333 7.87502 17.7417 7.87502 18.05C7.87502 19.2833 6.79585 20.3625 5.56252 20.3625C4.32919 20.3625 3.25002 19.2833 3.25002 18.05C3.25002 16.8167 4.32919 15.7375 5.56252 15.7375C6.02502 15.7375 6.33335 15.8917 6.64169 16.0458ZM6.17919 14.35H5.56252C3.40419 14.35 1.70835 16.0458 1.70835 18.05C1.70835 20.2083 3.40419 21.75 5.56252 21.75C7.72085 21.75 9.41669 20.2083 9.41669 18.05V17.7417L21.5959 5.5625C22.5209 4.6375 22.5209 3.25 21.5959 2.325C20.6709 1.4 19.2834 1.4 18.3584 2.325L6.17919 14.35ZM5.56252 12.8083L17.125 1.24583C18.6667 -0.295832 21.1334 -0.295832 22.5209 1.24583C23.9084 2.7875 24.0625 5.25417 22.5209 6.64167L10.9584 18.2042C10.8042 21.1333 8.49169 23.2917 5.56252 23.2917C2.63335 23.2917 0.166687 20.9792 0.166687 18.05C0.166687 15.1208 2.63335 12.8083 5.56252 12.8083ZM20.9792 24.8333C18.8209 24.8333 17.125 23.1375 17.125 20.9792C17.125 19.5917 18.3584 16.8167 20.9792 12.8083C23.6 16.8167 24.8334 19.5917 24.8334 20.9792C24.8334 23.1375 23.1375 24.8333 20.9792 24.8333Z" fill="white"/>
</svg>
