<svg width="56" height="56" viewBox="0 0 56 56" fill="none" xmlns="http://www.w3.org/2000/svg">
<path d="M40.6875 11.8893C49.1444 11.8893 56 18.8878 56 27.5208C56 36.1539 49.1444 43.1523 40.6875 43.1523H15.3125C6.85563 43.1523 0 36.1539 0 27.5208C0 18.8878 6.85563 11.8893 15.3125 11.8893H40.6875ZM40.6875 14.4414H15.3125C8.23637 14.4414 2.5 20.2973 2.5 27.5208C2.5 34.6722 8.12219 40.483 15.1006 40.5985L15.3125 40.6003H40.6875C47.7636 40.6003 53.5 34.7444 53.5 27.5208C53.5 20.3695 47.8778 14.5587 40.8994 14.4431L40.6875 14.4414ZM15.3125 18.2695C20.3176 18.2695 24.375 22.4115 24.375 27.5208C24.375 32.6302 20.3176 36.7721 15.3125 36.7721C10.3074 36.7721 6.25 32.6302 6.25 27.5208C6.25 22.4115 10.3074 18.2695 15.3125 18.2695ZM15.3125 20.8216C11.6881 20.8216 8.75 23.8209 8.75 27.5208C8.75 31.2207 11.6881 34.2201 15.3125 34.2201C18.9369 34.2201 21.875 31.2207 21.875 27.5208C21.875 23.8209 18.9369 20.8216 15.3125 20.8216Z" fill="white"/>
</svg>
